<?xml version="1.0" encoding="utf-8"?>
<svg
  xmlns="http://www.w3.org/2000/svg"
  viewBox="0 0 500 500"
  style="shape-rendering: geometricprecision"
  xmlns:bx="https://boxy-svg.com"
  width="500px"
  height="500px"
>
  <defs>
    <bx:export><bx:file format="svg" /></bx:export>
  </defs>
  <g transform="matrix(1, 0, 0, 1, 21.752792, -29.539238)">
    <g transform="matrix(0.18453, 0, 0, 1.666482, -21.660526, -5315.646973)">
      <path
        fill="#fefefe"
        d="M -0.5 3207.47 C 902.666 3207.47 1805.83 3207.47 2709 3207.47 C 2709 3307.48 2709 3407.49 2709 3507.5 C 1805.83 3507.5 902.666 3507.5 -0.5 3507.5 C -0.5 3407.49 -0.5 3307.48 -0.5 3207.47 Z"
      />
    </g>
    <g
      transform="matrix(0.232075, 0, 0, 0.232075, -53.291798, -108.361595)"
      id="object-0"
    >
      <path
        fill="#000"
        d="M 1875.5,1378.5 C 1871.5,1376.39 1867.16,1375.06 1862.5,1374.5C 1857.87,1374.02 1853.87,1372.19 1850.5,1369C 1847.85,1368.5 1845.19,1368.34 1842.5,1368.5C 1822.66,1368.22 1802.99,1368.22 1783.5,1368.5C 1777.83,1368.5 1772.17,1368.5 1766.5,1368.5C 1766.5,1369.5 1766.5,1370.5 1766.5,1371.5C 1775.2,1372.26 1783.86,1373.26 1792.5,1374.5C 1799.89,1376.63 1807.55,1377.63 1815.5,1377.5C 1823.83,1377.37 1831.83,1378.87 1839.5,1382C 1842.48,1384.65 1845.15,1387.65 1847.5,1391C 1853.96,1394.4 1860.3,1398.07 1866.5,1402C 1870.14,1402.97 1873.81,1403.81 1877.5,1404.5C 1879.96,1407.34 1880.13,1410.34 1878,1413.5C 1875.54,1414.65 1873.2,1415.98 1871,1417.5C 1857.02,1436.47 1847.02,1457.47 1841,1480.5C 1826.9,1523.83 1828.57,1566.5 1846,1608.5C 1848.25,1611.33 1850.25,1614.33 1852,1617.5C 1853.11,1624.97 1850.78,1626.3 1845,1621.5C 1843.6,1618.37 1841.93,1615.37 1840,1612.5C 1835.67,1607.5 1831.33,1602.5 1827,1597.5C 1822.32,1588.14 1817.65,1578.8 1813,1569.5C 1809.45,1560.79 1806.28,1551.95 1803.5,1543C 1721.23,1527.28 1642.23,1537.28 1566.5,1573C 1541.61,1585.36 1517.44,1598.86 1494,1613.5C 1482.92,1651.17 1473.08,1689.17 1464.5,1727.5C 1464.67,1728.5 1464.83,1729.5 1465,1730.5C 1482.37,1714.66 1499.2,1698.16 1515.5,1681C 1517.36,1679.7 1519.36,1679.37 1521.5,1680C 1527.57,1682.79 1533.41,1685.95 1539,1689.5C 1543.59,1682 1547.92,1674.33 1552,1666.5C 1558.52,1659.83 1565.69,1654 1573.5,1649C 1586.11,1644.03 1597.44,1637.03 1607.5,1628C 1621.58,1620.04 1635.92,1619.71 1650.5,1627C 1663.18,1634.67 1676.18,1641.84 1689.5,1648.5C 1692.75,1647.04 1695.08,1648.04 1696.5,1651.5C 1694.69,1655.8 1692.35,1659.8 1689.5,1663.5C 1690.96,1670.07 1694.96,1674.24 1701.5,1676C 1707.75,1677.54 1714.08,1677.87 1720.5,1677C 1724.73,1675.2 1729.07,1673.7 1733.5,1672.5C 1737.94,1675.44 1741.94,1678.94 1745.5,1683C 1755.77,1689.19 1766.93,1691.69 1779,1690.5C 1791.68,1690.58 1804.18,1689.08 1816.5,1686C 1848.02,1678.61 1878.02,1667.27 1906.5,1652C 1918.4,1643.1 1930.57,1634.6 1943,1626.5C 1945.72,1627.21 1946.72,1628.88 1946,1631.5C 1926.67,1651.5 1907.33,1671.5 1888,1691.5C 1864.92,1719.97 1847.26,1751.63 1835,1786.5C 1833.35,1793.1 1832.02,1799.77 1831,1806.5C 1830.19,1830.88 1830.52,1855.22 1832,1879.5C 1827.52,1883.14 1824.02,1887.47 1821.5,1892.5C 1824.03,1898.53 1827.19,1904.19 1831,1909.5C 1833.07,1915.05 1834.74,1920.71 1836,1926.5C 1835.09,1946.13 1834.26,1965.79 1833.5,1985.5C 1834.85,2014.81 1835.68,2044.15 1836,2073.5C 1837.4,2082.62 1840.73,2090.96 1846,2098.5C 1847.44,2103.76 1847.77,2109.1 1847,2114.5C 1844.17,2120.17 1840.83,2125.5 1837,2130.5C 1836.08,2145.88 1836.42,2161.21 1838,2176.5C 1842.78,2197.26 1852.95,2214.76 1868.5,2229C 1875.83,2234.67 1883.17,2240.33 1890.5,2246C 1893.17,2246.33 1895.83,2246.67 1898.5,2247C 1897.21,2249.29 1895.54,2251.29 1893.5,2253C 1888.34,2254.83 1883.67,2257.5 1879.5,2261C 1872.95,2267.52 1866.12,2273.68 1859,2279.5C 1840.05,2300.74 1823.05,2323.4 1808,2347.5C 1804.64,2328.97 1802.47,2310.3 1801.5,2291.5C 1801.22,2283.32 1800.56,2275.32 1799.5,2267.5C 1798.8,2249.17 1798.13,2230.83 1797.5,2212.5C 1797.81,2207.23 1797.14,2202.23 1795.5,2197.5C 1792.45,2160.24 1790.12,2122.9 1788.5,2085.5C 1787.21,2085.26 1786.21,2085.6 1785.5,2086.5C 1784.06,2096.63 1783.39,2106.97 1783.5,2117.5C 1783.5,2119.5 1783.5,2121.5 1783.5,2123.5C 1782.68,2127.65 1782.18,2131.98 1782,2136.5C 1781.5,2175.5 1781.33,2214.5 1781.5,2253.5C 1781.5,2258.83 1781.5,2264.17 1781.5,2269.5C 1780.47,2279.81 1779.81,2290.14 1779.5,2300.5C 1777.78,2308.61 1776.78,2316.94 1776.5,2325.5C 1774.7,2352.57 1775.37,2379.57 1778.5,2406.5C 1775.01,2406.76 1772.34,2405.42 1770.5,2402.5C 1766.35,2407.81 1762.02,2412.98 1757.5,2418C 1747.38,2419.46 1742.21,2425.29 1742,2435.5C 1735.78,2450.28 1727.78,2463.95 1718,2476.5C 1697.29,2500.88 1673.79,2522.05 1647.5,2540C 1633.11,2547.86 1618.45,2555.19 1603.5,2562C 1595.76,2564.91 1587.76,2566.75 1579.5,2567.5C 1576.89,2567.35 1574.56,2566.52 1572.5,2565C 1575.69,2562.57 1578.69,2559.9 1581.5,2557C 1586.1,2556.08 1590.44,2554.41 1594.5,2552C 1621.05,2535.46 1644.55,2515.29 1665,2491.5C 1700.29,2445.2 1720.96,2392.87 1727,2334.5C 1734.14,2301.01 1733.47,2267.67 1725,2234.5C 1724.33,2231.5 1724.33,2228.5 1725,2225.5C 1730.15,2220.02 1735.65,2214.86 1741.5,2210C 1735.03,2206.26 1728.7,2202.26 1722.5,2198C 1721.3,2197.1 1720.47,2195.93 1720,2194.5C 1715.79,2171.03 1713.46,2147.36 1713,2123.5C 1708.77,2130.41 1705.44,2137.74 1703,2145.5C 1700.1,2148.31 1697.43,2151.31 1695,2154.5C 1691.09,2163.32 1686.43,2171.65 1681,2179.5C 1672.97,2187.53 1664.97,2195.53 1657,2203.5C 1656.83,2203.17 1656.67,2202.83 1656.5,2202.5C 1663.8,2190.7 1671.3,2179.03 1679,2167.5C 1699.54,2130.35 1707.54,2090.68 1703,2048.5C 1683.84,2055.77 1664,2058.6 1643.5,2057C 1620.5,2055 1598.16,2050 1576.5,2042C 1559.5,2041.36 1542.5,2040.69 1525.5,2040C 1484.65,2037.72 1447.99,2024.39 1415.5,2000C 1406.02,1992.02 1396.69,1983.85 1387.5,1975.5C 1374.9,1986.71 1365.23,2000.04 1358.5,2015.5C 1358,2015.83 1357.5,2016.17 1357,2016.5C 1355.94,2015.37 1354.78,2014.87 1353.5,2015C 1348.09,2021.08 1342.09,2026.41 1335.5,2031C 1339.71,2035.55 1343.55,2040.38 1347,2045.5C 1351.38,2049.55 1356.05,2053.21 1361,2056.5C 1362.62,2064.62 1363.79,2072.78 1364.5,2081C 1372.76,2080.4 1381.09,2080.4 1389.5,2081C 1396.74,2082.57 1401.9,2086.73 1405,2093.5C 1423.25,2110.09 1440.42,2127.59 1456.5,2146C 1466.42,2153.08 1477.42,2157.42 1489.5,2159C 1490.93,2159.47 1492.1,2160.3 1493,2161.5C 1499.17,2171.18 1504.84,2181.18 1510,2191.5C 1512.45,2205.41 1514.29,2219.41 1515.5,2233.5C 1514.55,2239.87 1513.38,2246.21 1512,2252.5C 1509.06,2257.77 1505.73,2262.77 1502,2267.5C 1495.55,2261.05 1489.05,2254.55 1482.5,2248C 1472.82,2244.33 1464.16,2238.99 1456.5,2232C 1440.6,2221.88 1425.6,2210.55 1411.5,2198C 1403.3,2193.07 1395.63,2187.4 1388.5,2181C 1387.36,2180.25 1386.36,2180.42 1385.5,2181.5C 1390.74,2186.9 1395.74,2192.4 1400.5,2198C 1422.33,2217.83 1444.17,2237.67 1466,2257.5C 1478.39,2272.6 1490.05,2288.26 1501,2304.5C 1502.73,2311.44 1502.73,2318.44 1501,2325.5C 1496.32,2354.53 1488.99,2382.87 1479,2410.5C 1476,2414.5 1473,2418.5 1470,2422.5C 1461.42,2438 1452.08,2453 1442,2467.5C 1432.48,2478.02 1422.64,2488.19 1412.5,2498C 1404.66,2503.75 1396.33,2508.75 1387.5,2513C 1385.5,2515 1383.5,2517 1381.5,2519C 1372.48,2523.78 1363.15,2527.78 1353.5,2531C 1349.17,2531.67 1344.83,2531.67 1340.5,2531C 1338.58,2530.64 1336.91,2529.81 1335.5,2528.5C 1346.82,2527.67 1357.48,2524.5 1367.5,2519C 1374.92,2511.25 1383.25,2504.59 1392.5,2499C 1400.04,2493.13 1406.54,2486.29 1412,2478.5C 1413.87,2470.1 1416.87,2462.1 1421,2454.5C 1423.26,2445.29 1424.76,2435.95 1425.5,2426.5C 1426.63,2418.69 1427.3,2410.69 1427.5,2402.5C 1427.67,2393.49 1427.5,2384.49 1427,2375.5C 1425.11,2369.99 1424.28,2364.32 1424.5,2358.5C 1422.86,2358.71 1421.36,2358.38 1420,2357.5C 1420,2352.83 1420,2348.17 1420,2343.5C 1416.58,2329.25 1411.58,2315.59 1405,2302.5C 1400.28,2296.78 1395.95,2290.78 1392,2284.5C 1383.58,2277.08 1376.25,2268.75 1370,2259.5C 1369.33,2257.83 1369.33,2256.17 1370,2254.5C 1372.59,2252.46 1375.42,2250.79 1378.5,2249.5C 1379.74,2243.47 1377.74,2238.64 1372.5,2235C 1366.48,2230.16 1359.82,2228.83 1352.5,2231C 1349.87,2233.47 1346.87,2235.3 1343.5,2236.5C 1315.1,2222.8 1287.77,2207.3 1261.5,2190C 1249.13,2177.23 1237.46,2163.9 1226.5,2150C 1219.39,2149.93 1212.39,2149.26 1205.5,2148C 1204.1,2146.94 1203.1,2145.61 1202.5,2144C 1203.6,2138.21 1203.77,2132.37 1203,2126.5C 1191.96,2113.79 1181.29,2100.79 1171,2087.5C 1158.33,2073.5 1145.67,2059.5 1133,2045.5C 1126.42,2035.75 1120.92,2025.41 1116.5,2014.5C 1087.21,2019.34 1060.21,2013.51 1035.5,1997C 1029.66,1992.32 1024.32,1987.16 1019.5,1981.5C 1009.97,1999.86 999.8,2017.86 989,2035.5C 984.994,2046.18 980.994,2056.84 977,2067.5C 974.938,2069.9 973.271,2072.57 972,2075.5C 965.986,2097.86 955.986,2118.19 942,2136.5C 928.737,2167.03 913.403,2196.36 896,2224.5C 883,2241.83 870,2259.17 857,2276.5C 849.619,2284.38 841.786,2291.72 833.5,2298.5C 832.959,2296.48 833.459,2294.48 835,2292.5C 843.244,2280.92 852.244,2269.92 862,2259.5C 865,2255.17 868,2250.83 871,2246.5C 871.667,2245.83 871.667,2245.17 871,2244.5C 864.5,2251.67 858,2258.83 851.5,2266C 836.36,2276.47 823.193,2288.97 812,2303.5C 787.547,2328.3 761.047,2350.47 732.5,2370C 726.085,2372.47 719.752,2375.14 713.5,2378C 684.321,2400.18 651.321,2412.51 614.5,2415C 606.165,2415.48 597.832,2415.98 589.5,2416.5C 572.184,2414.56 554.85,2412.73 537.5,2411C 518.242,2403.95 503.075,2391.79 492,2374.5C 491.202,2372.74 491.369,2371.07 492.5,2369.5C 498.282,2373.78 503.615,2378.61 508.5,2384C 517.198,2388.68 525.865,2393.35 534.5,2398C 554.097,2401.03 573.764,2403.53 593.5,2405.5C 607.107,2403.38 620.773,2401.55 634.5,2400C 647.009,2396.83 659.342,2393.17 671.5,2389C 687.332,2378.5 703.665,2368.84 720.5,2360C 751.579,2334.28 781.245,2306.94 809.5,2278C 829.462,2261.37 847.295,2242.87 863,2222.5C 870.275,2211.02 876.608,2199.02 882,2186.5C 886.34,2180.67 890.84,2175 895.5,2169.5C 895.906,2160.41 894.906,2151.41 892.5,2142.5C 893.139,2139.53 893.639,2136.53 894,2133.5C 901.94,2124.23 911.106,2116.39 921.5,2110C 928.032,2103.8 934.199,2097.3 940,2090.5C 941.044,2088.29 941.71,2085.95 942,2083.5C 948.254,2072.66 954.254,2061.66 960,2050.5C 966.274,2033.01 972.941,2015.68 980,1998.5C 994.702,1970.1 1008.04,1941.1 1020,1911.5C 1024.12,1897.22 1028.12,1882.88 1032,1868.5C 1035.2,1861.31 1039.2,1854.64 1044,1848.5C 1055.92,1819.99 1068.92,1791.99 1083,1764.5C 1089.96,1751.58 1098.63,1739.92 1109,1729.5C 1109.67,1728.17 1109.67,1726.83 1109,1725.5C 1105.41,1722.67 1103.91,1719.17 1104.5,1715C 1102.21,1712.95 1102.05,1710.79 1104,1708.5C 1112.33,1695.83 1120.67,1683.17 1129,1670.5C 1135.13,1663.36 1141.63,1656.53 1148.5,1650C 1156.25,1644.71 1164.08,1639.54 1172,1634.5C 1179.26,1623.57 1187.6,1613.57 1197,1604.5C 1202.72,1594.78 1209.22,1585.61 1216.5,1577C 1219.31,1575.18 1222.31,1573.84 1225.5,1573C 1236.18,1572.07 1246.84,1571.07 1257.5,1570C 1238.1,1563.2 1218.77,1556.2 1199.5,1549C 1189.38,1544.77 1180.04,1539.27 1171.5,1532.5C 1171.17,1532.67 1170.83,1532.83 1170.5,1533C 1172.43,1536.26 1172.93,1539.76 1172,1543.5C 1167.76,1547.75 1164.26,1552.58 1161.5,1558C 1153.71,1562.22 1147.21,1560.72 1142,1553.5C 1139.41,1547.56 1140.24,1542.23 1144.5,1537.5C 1149.29,1535.2 1153.96,1532.7 1158.5,1530C 1161.57,1529.54 1164.57,1529.54 1167.5,1530C 1154.96,1517.96 1142.29,1506.12 1129.5,1494.5C 1130,1494.17 1130.5,1493.83 1131,1493.5C 1135.39,1494.63 1139.73,1495.96 1144,1497.5C 1144.77,1497.36 1145.44,1497.02 1146,1496.5C 1148.97,1498.4 1152.14,1499.9 1155.5,1501C 1181.59,1506.13 1207.92,1508.13 1234.5,1507C 1219.29,1502.1 1207.29,1493.1 1198.5,1480C 1195.25,1479.75 1192.25,1478.75 1189.5,1477C 1186.3,1473.46 1182.8,1470.3 1179,1467.5C 1168.05,1452.88 1156.71,1438.55 1145,1424.5C 1137.18,1411.69 1130.01,1398.52 1123.5,1385C 1123.74,1384.13 1124.07,1383.29 1124.5,1382.5C 1134.95,1380.48 1145.45,1379.81 1156,1380.5C 1159.54,1379.87 1163.04,1379.04 1166.5,1378C 1179.18,1365.32 1190.35,1351.49 1200,1336.5C 1214.41,1312.98 1228.74,1289.65 1243,1266.5C 1212.89,1278.52 1182.06,1280.69 1150.5,1273C 1140.92,1270.12 1131.75,1266.29 1123,1261.5C 1122.38,1263.12 1121.38,1264.45 1120,1265.5C 1119.48,1297.51 1119.81,1329.51 1121,1361.5C 1122.38,1364.51 1123.21,1367.68 1123.5,1371C 1122.24,1377.11 1121.41,1383.27 1121,1389.5C 1119.26,1429.82 1118.26,1470.16 1118,1510.5C 1118.82,1517.93 1120.15,1525.26 1122,1532.5C 1117.62,1570.79 1132.46,1598.62 1166.5,1616C 1169.61,1617.38 1170.61,1619.54 1169.5,1622.5C 1151.42,1626.8 1135.09,1634.63 1120.5,1646C 1093.73,1668.73 1071.57,1695.23 1054,1725.5C 1037.63,1758.5 1019.63,1790.5 1000,1821.5C 997.113,1830.15 993.447,1838.49 989,1846.5C 955.369,1897.76 925.369,1951.09 899,2006.5C 881.586,2035.59 860.086,2061.43 834.5,2084C 822.203,2092.56 809.036,2099.4 795,2104.5C 791.303,2103.07 790.637,2100.74 793,2097.5C 814.902,2086.39 833.235,2071.06 848,2051.5C 851.585,2046 854.919,2040.33 858,2034.5C 863.869,2016.56 869.535,1998.56 875,1980.5C 877.306,1960.84 875.64,1941.51 870,1922.5C 865.833,1914.83 861.667,1907.17 857.5,1899.5C 863.15,1879.42 867.317,1859.08 870,1838.5C 858.901,1845.97 848.068,1853.8 837.5,1862C 834.364,1863.04 831.864,1862.21 830,1859.5C 829.75,1856.25 828.75,1853.25 827,1850.5C 819.167,1840.67 811.333,1830.83 803.5,1821C 783.343,1806.09 763.01,1791.42 742.5,1777C 724.332,1771.25 708.332,1761.92 694.5,1749C 682.294,1735.8 670.461,1722.3 659,1708.5C 633.604,1686.39 611.937,1661.05 594,1632.5C 590.959,1631.81 588.625,1630.15 587,1627.5C 579.982,1613.15 570.649,1600.48 559,1589.5C 535.522,1557.16 529.522,1521.82 541,1483.5C 546.066,1471.94 553.233,1461.94 562.5,1453.5C 564.817,1455.32 566.984,1457.32 569,1459.5C 571.818,1465.78 574.485,1472.11 577,1478.5C 582.402,1484.07 587.236,1490.07 591.5,1496.5C 595.464,1498.15 599.131,1500.32 602.5,1503C 606.251,1501.56 609.418,1502.4 612,1505.5C 622.348,1516.84 631.515,1529.01 639.5,1542C 638.668,1547.35 640.668,1551.69 645.5,1555C 649.881,1554.61 653.381,1556.11 656,1559.5C 672.613,1583.11 689.613,1606.45 707,1629.5C 710.15,1633.62 713.65,1637.45 717.5,1641C 718.483,1641.59 719.15,1641.26 719.5,1640C 713.375,1630.93 707.875,1621.43 703,1611.5C 689.014,1593.53 676.014,1574.87 664,1555.5C 652.952,1542.12 642.285,1528.45 632,1514.5C 624.693,1505.36 616.86,1496.69 608.5,1488.5C 606.432,1481.03 603.265,1474.03 599,1467.5C 597.9,1461.89 595.4,1457.05 591.5,1453C 590.207,1452.51 588.873,1452.34 587.5,1452.5C 586.207,1446.58 585.374,1440.58 585,1434.5C 582.483,1427.62 580.15,1420.62 578,1413.5C 577.335,1404.47 577.668,1395.47 579,1386.5C 585.981,1367.54 595.314,1349.87 607,1333.5C 620.096,1315.5 634.929,1299 651.5,1284C 666.411,1271.88 683.077,1262.88 701.5,1257C 709.469,1255.74 717.469,1255.4 725.5,1256C 728.167,1258 728.167,1260 725.5,1262C 710.916,1261.98 697.583,1265.98 685.5,1274C 672.451,1282.71 660.951,1293.21 651,1305.5C 649.084,1308.9 648.084,1312.57 648,1316.5C 643.897,1321.71 640.563,1327.37 638,1333.5C 637.138,1349.2 637.471,1364.87 639,1380.5C 646.607,1398.38 655.274,1415.71 665,1432.5C 674.242,1443.99 683.242,1455.65 692,1467.5C 701.507,1488.34 714.174,1507 730,1523.5C 735.866,1533.7 743.532,1542.37 753,1549.5C 758.168,1560.81 764.335,1571.48 771.5,1581.5C 854.036,1522.12 914.869,1445.45 954,1351.5C 968.038,1316.68 977.704,1280.68 983,1243.5C 983.667,1237.83 983.667,1232.17 983,1226.5C 978.957,1218.46 973.457,1211.63 966.5,1206C 952.967,1199.03 938.634,1196.03 923.5,1197C 916.841,1199.9 909.841,1201.23 902.5,1201C 897.306,1205.03 891.973,1208.86 886.5,1212.5C 885.479,1212 885.312,1211.33 886,1210.5C 889.787,1205.04 893.954,1199.88 898.5,1195C 903.008,1192.25 907.341,1189.25 911.5,1186C 919.091,1183.53 926.424,1180.53 933.5,1177C 935.5,1175 937.5,1173 939.5,1171C 948.101,1168.28 956.768,1165.95 965.5,1164C 984.5,1151.83 1003.5,1139.67 1022.5,1127.5C 1023.19,1128.03 1023.69,1128.69 1024,1129.5C 1024.43,1134.59 1025.26,1139.59 1026.5,1144.5C 1026.13,1150.54 1027.13,1156.2 1029.5,1161.5C 1030.87,1168.78 1031.87,1176.11 1032.5,1183.5C 1032.2,1187.79 1032.86,1191.79 1034.5,1195.5C 1034.5,1196.17 1034.5,1196.83 1034.5,1197.5C 1034.3,1202.75 1034.97,1207.75 1036.5,1212.5C 1036.19,1217.77 1036.86,1222.77 1038.5,1227.5C 1039.48,1230.29 1039.81,1233.29 1039.5,1236.5C 1040.16,1249.76 1041.83,1262.76 1044.5,1275.5C 1045.95,1281.27 1046.61,1287.27 1046.5,1293.5C 1046.36,1298.41 1047.03,1303.08 1048.5,1307.5C 1049.07,1312.35 1050.07,1317.01 1051.5,1321.5C 1052.75,1333.19 1054.09,1344.85 1055.5,1356.5C 1055.41,1359.15 1056.08,1361.49 1057.5,1363.5C 1059.1,1371.46 1060.6,1379.46 1062,1387.5C 1062.61,1389.48 1063.61,1389.81 1065,1388.5C 1065.76,1355.35 1063.93,1322.35 1059.5,1289.5C 1059.24,1283.83 1058.91,1278.16 1058.5,1272.5C 1058.47,1266.95 1057.81,1261.62 1056.5,1256.5C 1055.57,1241.53 1055.23,1226.53 1055.5,1211.5C 1055.67,1198.16 1055.5,1184.83 1055,1171.5C 1054.8,1169.62 1054.3,1167.95 1053.5,1166.5C 1053.18,1144.48 1053.68,1122.48 1055,1100.5C 1065.2,1090.63 1075.7,1081.13 1086.5,1072C 1092.54,1065.63 1098.21,1058.96 1103.5,1052C 1072.85,1049.21 1042.18,1046.55 1011.5,1044C 985.499,1042.17 959.499,1040.84 933.5,1040C 929.884,1031.66 926.551,1023.16 923.5,1014.5C 917.968,1019.87 912.968,1025.7 908.5,1032C 903.643,1033.53 898.643,1034.36 893.5,1034.5C 886.471,1033.91 879.471,1033.08 872.5,1032C 851.892,1027.21 831.225,1023.21 810.5,1020C 819.892,1027.06 829.558,1033.72 839.5,1040C 846.97,1046.47 854.136,1053.3 861,1060.5C 866.843,1066.7 869.51,1074.03 869,1082.5C 865.501,1078.17 862.501,1073.51 860,1068.5C 841.604,1051.38 820.77,1037.88 797.5,1028C 778.763,1023.1 759.763,1020.1 740.5,1019C 735.502,1016.67 730.336,1014.83 725,1013.5C 716.265,1015.03 707.432,1016.03 698.5,1016.5C 710.827,1034.82 721.327,1054.15 730,1074.5C 746.446,1098.07 757.446,1124.07 763,1152.5C 767.632,1180.19 770.799,1208.02 772.5,1236C 771.174,1258.7 768.341,1281.2 764,1303.5C 762.196,1308.58 760.196,1313.58 758,1318.5C 749.388,1331.44 740.388,1344.11 731,1356.5C 730.111,1357.89 729.611,1357.72 729.5,1356C 738.469,1337.89 747.303,1319.73 756,1301.5C 756.333,1295.5 756.667,1289.5 757,1283.5C 758.044,1282.38 758.71,1281.04 759,1279.5C 760.063,1266.18 760.396,1252.84 760,1239.5C 758.939,1233.02 757.439,1226.69 755.5,1220.5C 755.59,1217.85 754.924,1215.51 753.5,1213.5C 749.454,1196.87 742.954,1181.21 734,1166.5C 722.627,1150.58 709.127,1136.75 693.5,1125C 668.417,1111.46 643.084,1098.46 617.5,1086C 588.106,1077.15 558.106,1071.49 527.5,1069C 526.707,1067.91 526.04,1066.75 525.5,1065.5C 530.867,1060.72 536.367,1056.06 542,1051.5C 561.438,1023.72 582.772,997.385 606,972.5C 615.388,960.111 624.388,947.445 633,934.5C 634.257,932.487 635.091,930.321 635.5,928C 633.671,922.509 631.171,917.343 628,912.5C 626.75,909.923 626.416,907.257 627,904.5C 628.667,902.833 630.333,901.167 632,899.5C 636.396,890.374 641.063,881.374 646,872.5C 649.196,863.572 652.363,854.738 655.5,846C 652.7,841.451 654.033,839.451 659.5,840C 673.361,849.928 688.695,856.595 705.5,860C 721.247,860.379 736.913,861.713 752.5,864C 786.756,862.972 820.59,866.139 854,873.5C 864.167,871.333 874.333,869.167 884.5,867C 887.833,866.333 891.167,866.333 894.5,867C 899.467,872.969 904.801,878.635 910.5,884C 922.177,884.066 933.844,883.566 945.5,882.5C 964.177,885.287 982.844,888.121 1001.5,891C 1016.01,891.756 1030.51,891.589 1045,890.5C 1059.42,893.104 1073.42,897.104 1087,902.5C 1087.33,899.833 1087.67,897.167 1088,894.5C 1088.29,892.069 1089.46,890.236 1091.5,889C 1111.79,889.78 1131.79,887.78 1151.5,883C 1173.1,876.716 1190.93,864.883 1205,847.5C 1207.59,843.326 1209.92,838.993 1212,834.5C 1214.3,822.024 1216.46,809.524 1218.5,797C 1215.99,783.123 1212.16,769.623 1207,756.5C 1199.42,751.291 1191.58,746.457 1183.5,742C 1187.5,741.333 1191.5,741.333 1195.5,742C 1207.7,746.527 1217.2,754.361 1224,765.5C 1231.44,779.494 1237.11,794.16 1241,809.5C 1242.08,814.47 1242.41,819.47 1242,824.5C 1238.92,850.227 1233.92,875.56 1227,900.5C 1220.42,912.98 1214.42,925.647 1209,938.5C 1207.17,940.333 1205.33,942.167 1203.5,944C 1198.47,946.516 1193.47,949.016 1188.5,951.5C 1195.88,965.197 1193.38,976.53 1181,985.5C 1178,989.167 1175,992.833 1172,996.5C 1163.73,1009.77 1155.06,1022.77 1146,1035.5C 1137.28,1044.22 1128.61,1052.89 1120,1061.5C 1116.64,1076.8 1115.14,1092.3 1115.5,1108C 1117.6,1142.52 1120.1,1177.02 1123,1211.5C 1126.68,1224.04 1130.85,1236.37 1135.5,1248.5C 1135.33,1249.83 1135.17,1251.17 1135,1252.5C 1131.75,1254.54 1128.58,1256.71 1125.5,1259C 1151.18,1272.95 1178.51,1277.61 1207.5,1273C 1221,1271.04 1234,1267.38 1246.5,1262C 1256.38,1248.45 1267.38,1235.78 1279.5,1224C 1284.84,1218.82 1291.18,1216.16 1298.5,1216C 1282.54,1226.96 1268.87,1240.29 1257.5,1256C 1270.13,1250.18 1282.47,1243.51 1294.5,1236C 1297.41,1230.84 1299.57,1225.34 1301,1219.5C 1305.89,1193.96 1303.22,1169.29 1293,1145.5C 1286.11,1139.27 1279.28,1133.1 1272.5,1127C 1263.8,1124.44 1255.63,1125.61 1248,1130.5C 1248.53,1126.61 1250.7,1123.78 1254.5,1122C 1265.81,1119.08 1276.15,1121.08 1285.5,1128C 1292.04,1132.87 1297.54,1138.71 1302,1145.5C 1308.89,1162.43 1312.39,1180.1 1312.5,1198.5C 1311.51,1225.62 1305.68,1251.62 1295,1276.5C 1291.33,1282.17 1287.67,1287.83 1284,1293.5C 1283.42,1300.16 1280.58,1305.66 1275.5,1310C 1276.17,1310.67 1276.83,1310.67 1277.5,1310C 1282.5,1306.33 1287.5,1302.67 1292.5,1299C 1295.59,1294.16 1298.92,1289.49 1302.5,1285C 1310.02,1284.22 1317.35,1282.56 1324.5,1280C 1332.3,1273.26 1340.64,1267.26 1349.5,1262C 1356.51,1252.51 1364.34,1243.68 1373,1235.5C 1388.42,1214.32 1404.09,1193.32 1420,1172.5C 1421.11,1170.61 1421.95,1168.61 1422.5,1166.5C 1418.19,1152.35 1409.52,1141.85 1396.5,1135C 1392.58,1129.07 1387.91,1123.74 1382.5,1119C 1374.1,1115.97 1366.43,1111.63 1359.5,1106C 1350.16,1103.05 1340.83,1100.38 1331.5,1098C 1322.87,1097.08 1314.7,1098.58 1307,1102.5C 1306.33,1101.83 1306.33,1101.17 1307,1100.5C 1313.18,1095.33 1320.35,1092.99 1328.5,1093.5C 1340.14,1094.14 1351.48,1096.31 1362.5,1100C 1370.99,1103.74 1379.32,1107.74 1387.5,1112C 1397.65,1120.57 1407.98,1128.91 1418.5,1137C 1423.04,1141.71 1427.71,1146.21 1432.5,1150.5C 1442.51,1129.8 1452.01,1108.8 1461,1087.5C 1465.92,1078.66 1470.59,1069.66 1475,1060.5C 1481.33,1043.18 1487.66,1025.84 1494,1008.5C 1502.29,964.172 1506.63,919.505 1507,874.5C 1505,852.798 1499.33,832.131 1490,812.5C 1480.95,792.232 1467.12,776.065 1448.5,764C 1434.69,750.469 1436.36,748.802 1453.5,759C 1465.58,767.745 1477.08,777.245 1488,787.5C 1492.27,795.712 1496.27,804.045 1500,812.5C 1505.74,829.712 1511.07,847.046 1516,864.5C 1518.77,875.493 1519.94,886.659 1519.5,898C 1518.92,918.165 1518.42,938.331 1518,958.5C 1512.94,988.475 1506.61,1018.14 1499,1047.5C 1491.34,1068.49 1483.67,1089.49 1476,1110.5C 1471.63,1133.12 1465.13,1155.12 1456.5,1176.5C 1462.28,1185.89 1467.95,1195.39 1473.5,1205C 1478.72,1234.3 1481.22,1263.8 1481,1293.5C 1478.37,1303.63 1476.37,1313.97 1475,1324.5C 1471.17,1332.16 1466.84,1339.5 1462,1346.5C 1457.21,1362.16 1455.21,1378.16 1456,1394.5C 1456.91,1395.33 1457.58,1396.33 1458,1397.5C 1459.33,1404.17 1460.67,1410.84 1462,1417.5C 1463.24,1431.48 1465.4,1445.32 1468.5,1459C 1467.76,1463.18 1466.93,1467.35 1466,1471.5C 1461.5,1474.67 1457,1477.83 1452.5,1481C 1450.03,1482.8 1448.36,1485.13 1447.5,1488C 1449.21,1489.86 1450.21,1492.03 1450.5,1494.5C 1446.62,1503.21 1445.79,1512.21 1448,1521.5C 1450.94,1527.04 1453.6,1532.71 1456,1538.5C 1457.24,1583.78 1458.24,1629.11 1459,1674.5C 1468.41,1629.2 1481.07,1584.87 1497,1541.5C 1505.74,1524.41 1514.07,1507.07 1522,1489.5C 1525.93,1481.95 1532.1,1477.45 1540.5,1476C 1536.33,1470.49 1533.66,1464.32 1532.5,1457.5C 1535.69,1436.8 1543.52,1418.13 1556,1401.5C 1567.13,1388.03 1579.3,1375.53 1592.5,1364C 1616.33,1347.75 1641.67,1334.08 1668.5,1323C 1682.81,1317.9 1697.47,1314.23 1712.5,1312C 1761.31,1306.05 1810.31,1305.05 1859.5,1309C 1882,1313.21 1904.34,1318.21 1926.5,1324C 1932.59,1327.46 1938.42,1331.29 1944,1335.5C 1944.45,1340.09 1942.61,1343.59 1938.5,1346C 1930.51,1349.33 1923.17,1353.66 1916.5,1359C 1907.99,1367.35 1899.65,1375.85 1891.5,1384.5C 1886.41,1381.89 1881.08,1379.89 1875.5,1378.5 Z"
      />
    </g>
    <g transform="matrix(0.232075, 0, 0, 0.232075, -53.291798, -108.361595)">
      <path
        fill="#131313"
        d="M 1168.5,819.5 C 1171.28,822.51 1170.94,825.344 1167.5,828C 1164.83,828.833 1162.5,828.333 1160.5,826.5C 1160.65,821.351 1163.32,819.018 1168.5,819.5 Z"
      />
    </g>
    <g transform="matrix(0.232075, 0, 0, 0.232075, -53.291798, -108.361595)">
      <path
        fill="#777777"
        d="M 1168.5,819.5 C 1163.32,819.018 1160.65,821.351 1160.5,826.5C 1158.93,823.57 1159.59,821.07 1162.5,819C 1164.71,818.211 1166.71,818.378 1168.5,819.5 Z"
      />
    </g>
    <g transform="matrix(0.232075, 0, 0, 0.232075, -53.291798, -108.361595)">
      <path
        fill="#121212"
        d="M 1153.5,871.5 C 1152.63,867.232 1152.29,862.898 1152.5,858.5C 1150.5,858.5 1148.5,858.5 1146.5,858.5C 1143.43,854.088 1144.1,850.255 1148.5,847C 1151.24,846.578 1153.9,846.578 1156.5,847C 1157.83,844.333 1159.17,841.667 1160.5,839C 1165.33,838.5 1167.5,840.667 1167,845.5C 1165.15,849.198 1163.32,852.864 1161.5,856.5C 1164.19,857.19 1165.86,858.857 1166.5,861.5C 1164.53,865.487 1162.19,869.321 1159.5,873C 1157.16,873.748 1155.16,873.248 1153.5,871.5 Z"
      />
    </g>
    <g transform="matrix(0.232075, 0, 0, 0.232075, -53.291798, -108.361595)">
      <path
        fill="#aaaaaa"
        d="M 1146.5,858.5 C 1148.5,858.5 1150.5,858.5 1152.5,858.5C 1152.29,862.898 1152.63,867.232 1153.5,871.5C 1152.88,871.389 1152.38,871.056 1152,870.5C 1151.5,866.848 1151.33,863.182 1151.5,859.5C 1149.59,859.784 1147.92,859.451 1146.5,858.5 Z"
      />
    </g>
    <g transform="matrix(0.232075, 0, 0, 0.232075, -53.291798, -108.361595)">
      <path
        fill="#0f0f0f"
        d="M 599.5,906.5 C 599.982,909.831 598.982,912.497 596.5,914.5C 593.892,914.6 591.558,913.933 589.5,912.5C 589.697,904.944 593.03,902.944 599.5,906.5 Z"
      />
    </g>
    <g transform="matrix(0.232075, 0, 0, 0.232075, -53.291798, -108.361595)">
      <path
        fill="#808080"
        d="M 599.5,906.5 C 593.03,902.944 589.697,904.944 589.5,912.5C 587.857,905.313 590.857,902.48 598.5,904C 599.252,904.671 599.586,905.504 599.5,906.5 Z"
      />
    </g>
    <g transform="matrix(0.232075, 0, 0, 0.232075, -53.291798, -108.361595)">
      <path
        fill="#5d5d5d"
        d="M 589.5,912.5 C 591.558,913.933 593.892,914.6 596.5,914.5C 593.598,916.115 591.265,915.449 589.5,912.5 Z"
      />
    </g>
    <g transform="matrix(0.232075, 0, 0, 0.232075, -53.291798, -108.361595)">
      <path
        fill="#878787"
        d="M 582.5,932.5 C 578.773,930.748 574.773,930.081 570.5,930.5C 571.312,929.007 572.645,928.34 574.5,928.5C 577.935,928.52 580.602,929.854 582.5,932.5 Z"
      />
    </g>
    <g transform="matrix(0.232075, 0, 0, 0.232075, -53.291798, -108.361595)">
      <path
        fill="#070707"
        d="M 570.5,930.5 C 574.773,930.081 578.773,930.748 582.5,932.5C 586.335,933.658 589.335,935.991 591.5,939.5C 591.794,945.605 590.46,951.271 587.5,956.5C 583.77,961.233 579.436,965.233 574.5,968.5C 569.489,969.111 565.156,967.777 561.5,964.5C 559.623,957.648 558.789,950.648 559,943.5C 561.04,941.63 562.873,939.63 564.5,937.5C 564.5,936.833 564.833,936.5 565.5,936.5C 567.156,934.54 568.823,932.54 570.5,930.5 Z"
      />
    </g>
    <g transform="matrix(0.232075, 0, 0, 0.232075, -53.291798, -108.361595)">
      <path
        fill="#9b9b9b"
        d="M 570.5,930.5 C 568.823,932.54 567.156,934.54 565.5,936.5C 565.772,933.268 567.438,931.268 570.5,930.5 Z"
      />
    </g>
    <g transform="matrix(0.232075, 0, 0, 0.232075, -53.291798, -108.361595)">
      <path
        fill="#a0a0a0"
        d="M 564.5,937.5 C 562.873,939.63 561.04,941.63 559,943.5C 558.789,950.648 559.623,957.648 561.5,964.5C 560.069,964.119 559.236,963.119 559,961.5C 558.277,955.161 557.943,948.828 558,942.5C 559.777,940.21 561.944,938.543 564.5,937.5 Z"
      />
    </g>
    <g transform="matrix(0.232075, 0, 0, 0.232075, -53.291798, -108.361595)">
      <path
        fill="#ababab"
        d="M 591.5,939.5 C 592.643,942.976 592.81,946.642 592,950.5C 591.119,953.014 589.619,955.014 587.5,956.5C 590.46,951.271 591.794,945.605 591.5,939.5 Z"
      />
    </g>
    <g transform="matrix(0.232075, 0, 0, 0.232075, -53.291798, -108.361595)">
      <path
        fill="#8a8a8a"
        d="M 587.5,956.5 C 585.028,962.643 580.695,966.643 574.5,968.5C 579.436,965.233 583.77,961.233 587.5,956.5 Z"
      />
    </g>
    <g transform="matrix(0.232075, 0, 0, 0.232075, -53.291798, -108.361595)">
      <path
        fill="#767676"
        d="M 561.5,964.5 C 565.156,967.777 569.489,969.111 574.5,968.5C 571.696,969.638 568.696,969.805 565.5,969C 563.249,968.252 561.916,966.752 561.5,964.5 Z"
      />
    </g>
    <g transform="matrix(0.232075, 0, 0, 0.232075, -53.291798, -108.361595)">
      <path
        fill="#0f0f0f"
        d="M 1460.5,1002.5 C 1463.22,1003.94 1466.05,1005.27 1469,1006.5C 1468.86,1009.51 1468.36,1012.51 1467.5,1015.5C 1464.51,1014.9 1461.84,1013.57 1459.5,1011.5C 1459.07,1010.71 1458.74,1009.87 1458.5,1009C 1459.61,1006.95 1460.28,1004.79 1460.5,1002.5 Z"
      />
    </g>
    <g transform="matrix(0.232075, 0, 0, 0.232075, -53.291798, -108.361595)">
      <path
        fill="#fff"
        d="M 618.5,1007.5 C 626.163,1007.98 633.83,1008.48 641.5,1009C 646.467,1012.97 651.134,1017.3 655.5,1022C 659.134,1022.16 662.467,1023.16 665.5,1025C 666.361,1027.87 668.028,1030.2 670.5,1032C 674.828,1033.83 678.828,1036.16 682.5,1039C 695.333,1055.17 708.167,1071.33 721,1087.5C 723.866,1091.56 725.866,1095.89 727,1100.5C 717.168,1087.49 704.335,1079.16 688.5,1075.5C 689.409,1069.52 689.575,1063.52 689,1057.5C 686.203,1053.7 683.036,1050.2 679.5,1047C 664.272,1039.89 650.605,1030.56 638.5,1019C 632.446,1015.31 626.112,1012.14 619.5,1009.5C 618.702,1009.04 618.369,1008.38 618.5,1007.5 Z"
      />
    </g>
    <g transform="matrix(0.232075, 0, 0, 0.232075, -53.291798, -108.361595)">
      <path
        fill="#0c0c0c"
        d="M 1455.5,1017.5 C 1456.5,1017.41 1457.33,1017.75 1458,1018.5C 1459.37,1021.73 1460.54,1025.06 1461.5,1028.5C 1462.38,1029.25 1463.38,1029.75 1464.5,1030C 1462.65,1034.85 1459.65,1038.85 1455.5,1042C 1453,1040.12 1450,1039.29 1446.5,1039.5C 1446.33,1034.49 1446.5,1029.49 1447,1024.5C 1450.58,1023.08 1453.42,1020.75 1455.5,1017.5 Z"
      />
    </g>
    <g transform="matrix(0.232075, 0, 0, 0.232075, -53.291798, -108.361595)">
      <path
        fill="#b7b7b7"
        d="M 947.5,1097.5 C 941.055,1098.32 938.722,1101.99 940.5,1108.5C 939.518,1105.04 939.185,1101.37 939.5,1097.5C 942.352,1096.74 945.019,1096.74 947.5,1097.5 Z"
      />
    </g>
    <g transform="matrix(0.232075, 0, 0, 0.232075, -53.291798, -108.361595)">
      <path
        fill="#0d0d0d"
        d="M 947.5,1097.5 C 947.738,1099.4 948.738,1100.74 950.5,1101.5C 952,1108.33 949.333,1111.33 942.5,1110.5C 941.833,1109.83 941.167,1109.17 940.5,1108.5C 938.722,1101.99 941.055,1098.32 947.5,1097.5 Z"
      />
    </g>
    <g transform="matrix(0.232075, 0, 0, 0.232075, -53.291798, -108.361595)">
      <path
        fill="#858585"
        d="M 950.5,1101.5 C 953.346,1109.65 950.679,1112.65 942.5,1110.5C 949.333,1111.33 952,1108.33 950.5,1101.5 Z"
      />
    </g>
    <g transform="matrix(0.232075, 0, 0, 0.232075, -53.291798, -108.361595)">
      <path
        fill="#cacaca"
        d="M 913.5,1112.5 C 910.921,1112.13 908.588,1112.13 906.5,1112.5C 905.127,1112.34 903.793,1112.51 902.5,1113C 900.18,1115.16 897.513,1116.66 894.5,1117.5C 896.73,1115.94 898.73,1113.94 900.5,1111.5C 903.631,1110.31 906.797,1109.31 910,1108.5C 912.071,1109.1 913.238,1110.44 913.5,1112.5 Z"
      />
    </g>
    <g transform="matrix(0.232075, 0, 0, 0.232075, -53.291798, -108.361595)">
      <path
        fill="#060606"
        d="M 913.5,1112.5 C 914.899,1113.89 916.566,1114.89 918.5,1115.5C 920.404,1115.74 921.738,1116.74 922.5,1118.5C 929.517,1130.69 927.184,1140.86 915.5,1149C 910.806,1149.56 906.14,1149.4 901.5,1148.5C 899.448,1146.12 897.448,1143.79 895.5,1141.5C 895.145,1137.79 893.479,1134.79 890.5,1132.5C 889.249,1129.13 889.249,1125.79 890.5,1122.5C 895.869,1119.15 901.203,1115.82 906.5,1112.5C 908.588,1112.13 910.921,1112.13 913.5,1112.5 Z"
      />
    </g>
    <g transform="matrix(0.232075, 0, 0, 0.232075, -53.291798, -108.361595)">
      <path
        fill="#3d3d3d"
        d="M 906.5,1112.5 C 901.203,1115.82 895.869,1119.15 890.5,1122.5C 890.5,1122.17 890.5,1121.83 890.5,1121.5C 891.5,1119.83 892.833,1118.5 894.5,1117.5C 897.513,1116.66 900.18,1115.16 902.5,1113C 903.793,1112.51 905.127,1112.34 906.5,1112.5 Z"
      />
    </g>
    <g transform="matrix(0.232075, 0, 0, 0.232075, -53.291798, -108.361595)">
      <path
        fill="#828282"
        d="M 913.5,1112.5 C 915.989,1112.24 917.656,1113.24 918.5,1115.5C 916.566,1114.89 914.899,1113.89 913.5,1112.5 Z"
      />
    </g>
    <g transform="matrix(0.232075, 0, 0, 0.232075, -53.291798, -108.361595)">
      <path
        fill="#0c0c0c"
        d="M 954.5,1120.5 C 957.707,1121.71 959.374,1124.04 959.5,1127.5C 958.956,1130.92 957.622,1133.92 955.5,1136.5C 950.491,1142.13 945.991,1141.8 942,1135.5C 941.503,1132.85 941.336,1130.19 941.5,1127.5C 941.615,1125.05 942.615,1123.05 944.5,1121.5C 945.167,1121.5 945.833,1121.5 946.5,1121.5C 949.167,1121.17 951.833,1120.83 954.5,1120.5 Z"
      />
    </g>
    <g transform="matrix(0.232075, 0, 0, 0.232075, -53.291798, -108.361595)">
      <path
        fill="#a9a9a9"
        d="M 890.5,1121.5 C 890.5,1121.83 890.5,1122.17 890.5,1122.5C 889.249,1125.79 889.249,1129.13 890.5,1132.5C 893.479,1134.79 895.145,1137.79 895.5,1141.5C 893.241,1138.4 890.741,1135.4 888,1132.5C 887.176,1129.12 887.343,1125.78 888.5,1122.5C 889.183,1122.14 889.85,1121.8 890.5,1121.5 Z"
      />
    </g>
    <g transform="matrix(0.232075, 0, 0, 0.232075, -53.291798, -108.361595)">
      <path
        fill="#b4b4b4"
        d="M 955.5,1136.5 C 957.622,1133.92 958.956,1130.92 959.5,1127.5C 959.374,1124.04 957.707,1121.71 954.5,1120.5C 951.707,1119.25 949.04,1119.59 946.5,1121.5C 945.833,1121.5 945.167,1121.5 944.5,1121.5C 944.62,1120.41 945.287,1119.75 946.5,1119.5C 957.615,1116.12 962.449,1120.12 961,1131.5C 959.296,1133.37 957.463,1135.04 955.5,1136.5 Z"
      />
    </g>
    <g transform="matrix(0.232075, 0, 0, 0.232075, -53.291798, -108.361595)">
      <path
        fill="#5e5e5e"
        d="M 954.5,1120.5 C 951.833,1120.83 949.167,1121.17 946.5,1121.5C 949.04,1119.59 951.707,1119.25 954.5,1120.5 Z"
      />
    </g>
    <g transform="matrix(0.232075, 0, 0, 0.232075, -53.291798, -108.361595)">
      <path
        fill="#bfbfbf"
        d="M 941.5,1127.5 C 941.336,1130.19 941.503,1132.85 942,1135.5C 945.991,1141.8 950.491,1142.13 955.5,1136.5C 953.938,1142.57 950.271,1144.07 944.5,1141C 943.421,1140.04 942.255,1139.21 941,1138.5C 940.19,1134.64 940.357,1130.98 941.5,1127.5 Z"
      />
    </g>
    <g transform="matrix(0.232075, 0, 0, 0.232075, -53.291798, -108.361595)">
      <path
        fill="#878787"
        d="M 922.5,1118.5 C 924.311,1118.57 925.644,1119.41 926.5,1121C 930.537,1133.18 927.204,1142.84 916.5,1150C 912.167,1150.67 907.833,1150.67 903.5,1150C 902.584,1149.72 901.918,1149.22 901.5,1148.5C 906.14,1149.4 910.806,1149.56 915.5,1149C 927.184,1140.86 929.517,1130.69 922.5,1118.5 Z"
      />
    </g>
    <g transform="matrix(0.232075, 0, 0, 0.232075, -53.291798, -108.361595)">
      <path
        fill="#545454"
        d="M 1026.5,1144.5 C 1028.02,1149.95 1029.02,1155.61 1029.5,1161.5C 1027.13,1156.2 1026.13,1150.54 1026.5,1144.5 Z"
      />
    </g>
    <g transform="matrix(0.232075, 0, 0, 0.232075, -53.291798, -108.361595)">
      <path
        fill="#9d9d9d"
        d="M 1053.5,1166.5 C 1054.3,1167.95 1054.8,1169.62 1055,1171.5C 1055.5,1184.83 1055.67,1198.16 1055.5,1211.5C 1054.69,1196.66 1054.02,1181.66 1053.5,1166.5 Z"
      />
    </g>
    <g transform="matrix(0.232075, 0, 0, 0.232075, -53.291798, -108.361595)">
      <path
        fill="#656565"
        d="M 1032.5,1183.5 C 1034.14,1187.21 1034.8,1191.21 1034.5,1195.5C 1032.86,1191.79 1032.2,1187.79 1032.5,1183.5 Z"
      />
    </g>
    <g transform="matrix(0.232075, 0, 0, 0.232075, -53.291798, -108.361595)">
      <path
        fill="#fefefe"
        d="M 1437.5,1200.5 C 1439.61,1201.36 1440.78,1203.03 1441,1205.5C 1443.78,1217.82 1446.94,1229.98 1450.5,1242C 1448.82,1250.39 1446.32,1258.55 1443,1266.5C 1427.88,1295.3 1407.88,1320.3 1383,1341.5C 1381.88,1344.25 1380.38,1346.75 1378.5,1349C 1371.33,1353.5 1364.17,1358 1357,1362.5C 1355.14,1370.17 1355.31,1377.83 1357.5,1385.5C 1351.98,1384.83 1346.32,1383.66 1340.5,1382C 1336.88,1380.89 1333.21,1380.56 1329.5,1381C 1304.53,1395.98 1278.87,1409.65 1252.5,1422C 1250.33,1423.59 1248,1424.92 1245.5,1426C 1243.97,1428.33 1244.3,1430.33 1246.5,1432C 1263.96,1431.87 1281.29,1433.2 1298.5,1436C 1311.58,1444.43 1320.08,1456.27 1324,1471.5C 1329.4,1489.07 1332.06,1507.07 1332,1525.5C 1332.75,1539.01 1332.58,1552.51 1331.5,1566C 1332.07,1591.54 1333.24,1617.04 1335,1642.5C 1336.47,1644.32 1338.3,1644.82 1340.5,1644C 1342.38,1641.78 1344.55,1639.94 1347,1638.5C 1357.81,1638.97 1363.81,1644.64 1365,1655.5C 1366.39,1663.88 1364.72,1671.55 1360,1678.5C 1353.45,1682.57 1346.62,1686.07 1339.5,1689C 1338.1,1690.06 1337.1,1691.39 1336.5,1693C 1339.19,1697.07 1340.69,1701.57 1341,1706.5C 1342.31,1725.71 1343.48,1744.88 1344.5,1764C 1344.53,1798.09 1344.36,1832.26 1344,1866.5C 1342.16,1877.04 1337.5,1886.04 1330,1893.5C 1329.08,1895.03 1328.58,1896.7 1328.5,1898.5C 1332.21,1907.6 1336.21,1916.6 1340.5,1925.5C 1341,1956.5 1331.83,1984.17 1313,2008.5C 1310.42,2007.13 1307.92,2005.63 1305.5,2004C 1301.72,1999.62 1297.39,1995.95 1292.5,1993C 1274.97,1975.82 1258.64,1957.82 1243.5,1939C 1237.08,1934.88 1230.42,1934.71 1223.5,1938.5C 1223.17,1938.17 1222.83,1937.83 1222.5,1937.5C 1223.64,1927.21 1223.81,1916.88 1223,1906.5C 1219.38,1901.21 1215.38,1896.21 1211,1891.5C 1202.67,1866.83 1198.67,1841.5 1199,1815.5C 1202.22,1788.42 1211.55,1763.75 1227,1741.5C 1237.73,1731.21 1249.9,1723.05 1263.5,1717C 1268.56,1716.4 1273.56,1715.56 1278.5,1714.5C 1281.46,1716 1284.46,1716.34 1287.5,1715.5C 1288.94,1712.77 1288.27,1710.61 1285.5,1709C 1283.3,1708.63 1281.14,1708.13 1279,1707.5C 1268.84,1708.16 1258.68,1709.66 1248.5,1712C 1233.7,1718.8 1220.53,1727.97 1209,1739.5C 1181.45,1772.91 1159.78,1809.91 1144,1850.5C 1139.25,1869.55 1136.42,1888.89 1135.5,1908.5C 1132.23,1910.27 1129.4,1912.6 1127,1915.5C 1122.58,1921.34 1118.91,1927.68 1116,1934.5C 1113.2,1945.71 1111.03,1957.04 1109.5,1968.5C 1100.64,1966.16 1091.64,1964.33 1082.5,1963C 1069.19,1960.01 1057.19,1954.34 1046.5,1946C 1042.91,1942.91 1039.91,1939.41 1037.5,1935.5C 1040.86,1919.8 1046.69,1905.13 1055,1891.5C 1062.23,1873.83 1070.23,1856.49 1079,1839.5C 1081.86,1838.83 1084.69,1837.99 1087.5,1837C 1088.7,1836.1 1089.53,1834.93 1090,1833.5C 1090.33,1823.83 1090.67,1814.17 1091,1804.5C 1093.84,1799.48 1097.18,1794.81 1101,1790.5C 1104.61,1782.95 1107.94,1775.28 1111,1767.5C 1118.32,1758.86 1124.66,1749.53 1130,1739.5C 1136.75,1725.06 1143.09,1710.39 1149,1695.5C 1158.59,1679.98 1168.93,1664.98 1180,1650.5C 1191.43,1636.65 1203.1,1622.98 1215,1609.5C 1218.91,1604.92 1223.41,1601.08 1228.5,1598C 1240.9,1591.8 1253.57,1586.13 1266.5,1581C 1274.4,1579.78 1282.06,1577.78 1289.5,1575C 1297.52,1574.83 1305.52,1574.33 1313.5,1573.5C 1301.22,1564.86 1287.89,1558.03 1273.5,1553C 1269.45,1549.28 1265.12,1545.95 1260.5,1543C 1247.31,1543.29 1234.31,1541.95 1221.5,1539C 1212.51,1534.51 1203.84,1529.51 1195.5,1524C 1205.66,1524.54 1215.82,1525.38 1226,1526.5C 1233.89,1526.19 1241.72,1525.52 1249.5,1524.5C 1260.04,1529.15 1271.04,1530.65 1282.5,1529C 1285.5,1527.83 1288.17,1526.17 1290.5,1524C 1299.65,1523.57 1308.65,1522.23 1317.5,1520C 1319.45,1518.27 1320.45,1516.1 1320.5,1513.5C 1311.34,1512.59 1303.01,1509.42 1295.5,1504C 1292.83,1503.67 1290.17,1503.33 1287.5,1503C 1275.41,1496.52 1262.75,1491.19 1249.5,1487C 1243.11,1483.14 1236.45,1479.81 1229.5,1477C 1212.83,1463 1196.17,1449 1179.5,1435C 1177.59,1428.34 1174.25,1422.5 1169.5,1417.5C 1183.7,1412.73 1198.03,1408.56 1212.5,1405C 1214.67,1402.83 1216.83,1400.67 1219,1398.5C 1222.59,1388.24 1229.76,1382.4 1240.5,1381C 1245.67,1378.25 1250.67,1375.25 1255.5,1372C 1261.79,1364.04 1268.46,1356.37 1275.5,1349C 1282.13,1345.19 1289.13,1342.19 1296.5,1340C 1300.04,1336.8 1303.2,1333.3 1306,1329.5C 1307.2,1327.32 1307.7,1324.99 1307.5,1322.5C 1317.04,1323.8 1326.04,1321.97 1334.5,1317C 1341.47,1310.85 1348.81,1305.18 1356.5,1300C 1365.29,1290.87 1374.96,1282.87 1385.5,1276C 1389.71,1271.45 1393.55,1266.62 1397,1261.5C 1402.9,1250.37 1408.23,1239.03 1413,1227.5C 1417.31,1222.86 1421.98,1218.52 1427,1214.5C 1430.76,1209.95 1434.26,1205.29 1437.5,1200.5 Z"
      />
    </g>
    <g transform="matrix(0.232075, 0, 0, 0.232075, -53.291798, -108.361595)">
      <path
        fill="#5c5c5c"
        d="M 1034.5,1197.5 C 1036.03,1202.25 1036.7,1207.25 1036.5,1212.5C 1034.97,1207.75 1034.3,1202.75 1034.5,1197.5 Z"
      />
    </g>
    <g transform="matrix(0.232075, 0, 0, 0.232075, -53.291798, -108.361595)">
      <path
        fill="#979797"
        d="M 753.5,1213.5 C 754.924,1215.51 755.59,1217.85 755.5,1220.5C 754.076,1218.49 753.41,1216.15 753.5,1213.5 Z"
      />
    </g>
    <g transform="matrix(0.232075, 0, 0, 0.232075, -53.291798, -108.361595)">
      <path
        fill="#646464"
        d="M 1036.5,1212.5 C 1037.89,1217.27 1038.56,1222.27 1038.5,1227.5C 1036.86,1222.77 1036.19,1217.77 1036.5,1212.5 Z"
      />
    </g>
    <g transform="matrix(0.232075, 0, 0, 0.232075, -53.291798, -108.361595)">
      <path
        fill="#fdfdfd"
        d="M 986.5,1234.5 C 990.709,1244.32 993.542,1254.66 995,1265.5C 996.709,1284.8 997.376,1304.14 997,1323.5C 976.832,1344.33 958.166,1366.33 941,1389.5C 953.067,1363.65 963.4,1336.99 972,1309.5C 979.86,1285.06 984.694,1260.06 986.5,1234.5 Z"
      />
    </g>
    <g transform="matrix(0.232075, 0, 0, 0.232075, -53.291798, -108.361595)">
      <path
        fill="#f7f7f7"
        d="M 1292.5,1240.5 C 1288.69,1251.84 1283.86,1263.17 1278,1274.5C 1269.39,1288.11 1260.39,1301.44 1251,1314.5C 1237.04,1330.13 1221.54,1343.96 1204.5,1356C 1198.14,1359.35 1191.81,1362.35 1185.5,1365C 1195.12,1351.59 1204.62,1338.09 1214,1324.5C 1215.12,1329.11 1217.96,1330.61 1222.5,1329C 1226.8,1323.3 1226.14,1318.13 1220.5,1313.5C 1230.25,1296.33 1240.75,1279.66 1252,1263.5C 1265.97,1256.44 1279.47,1248.77 1292.5,1240.5 Z"
      />
    </g>
    <g transform="matrix(0.232075, 0, 0, 0.232075, -53.291798, -108.361595)">
      <path
        fill="#636363"
        d="M 1039.5,1236.5 C 1041.61,1249.31 1043.28,1262.31 1044.5,1275.5C 1041.83,1262.76 1040.16,1249.76 1039.5,1236.5 Z"
      />
    </g>
    <g transform="matrix(0.232075, 0, 0, 0.232075, -53.291798, -108.361595)">
      <path
        fill="#0d0d0d"
        d="M 1577.5,1254.5 C 1582.31,1259.24 1583.31,1264.57 1580.5,1270.5C 1578.7,1271.79 1577.04,1273.29 1575.5,1275C 1573.4,1275.68 1571.4,1275.51 1569.5,1274.5C 1567.69,1269.72 1567.19,1264.72 1568,1259.5C 1570.17,1255.81 1573.34,1254.14 1577.5,1254.5 Z"
      />
    </g>
    <g transform="matrix(0.232075, 0, 0, 0.232075, -53.291798, -108.361595)">
      <path
        fill="#b5b5b5"
        d="M 1577.5,1254.5 C 1578.83,1254.5 1580.17,1254.5 1581.5,1254.5C 1582.31,1257.96 1582.97,1261.46 1583.5,1265C 1583.56,1267.57 1582.56,1269.41 1580.5,1270.5C 1583.31,1264.57 1582.31,1259.24 1577.5,1254.5 Z"
      />
    </g>
    <g transform="matrix(0.232075, 0, 0, 0.232075, -53.291798, -108.361595)">
      <path
        fill="#3e3e3e"
        d="M 1056.5,1256.5 C 1057.81,1261.62 1058.47,1266.95 1058.5,1272.5C 1057.83,1270.17 1057.17,1267.83 1056.5,1265.5C 1056.5,1262.5 1056.5,1259.5 1056.5,1256.5 Z"
      />
    </g>
    <g transform="matrix(0.232075, 0, 0, 0.232075, -53.291798, -108.361595)">
      <path
        fill="#b4b4b4"
        d="M 1577.5,1254.5 C 1573.34,1254.14 1570.17,1255.81 1568,1259.5C 1567.19,1264.72 1567.69,1269.72 1569.5,1274.5C 1563.67,1267.14 1564.33,1260.31 1571.5,1254C 1573.71,1253.21 1575.71,1253.38 1577.5,1254.5 Z"
      />
    </g>
    <g transform="matrix(0.232075, 0, 0, 0.232075, -53.291798, -108.361595)">
      <path
        fill="#c0c0c0"
        d="M 1560.5,1287.5 C 1560.17,1287.5 1559.83,1287.5 1559.5,1287.5C 1558.83,1284.66 1557.5,1282.16 1555.5,1280C 1552.97,1279.38 1550.63,1278.38 1548.5,1277C 1545.18,1276.5 1541.85,1276.33 1538.5,1276.5C 1546.65,1273.33 1553.82,1274.99 1560,1281.5C 1560.5,1283.47 1560.66,1285.47 1560.5,1287.5 Z"
      />
    </g>
    <g transform="matrix(0.232075, 0, 0, 0.232075, -53.291798, -108.361595)">
      <path
        fill="#070707"
        d="M 1538.5,1276.5 C 1541.85,1276.33 1545.18,1276.5 1548.5,1277C 1550.63,1278.38 1552.97,1279.38 1555.5,1280C 1557.5,1282.16 1558.83,1284.66 1559.5,1287.5C 1559.83,1292.54 1559.49,1297.54 1558.5,1302.5C 1555.94,1304.68 1553.27,1306.68 1550.5,1308.5C 1546.73,1310.17 1543.23,1309.84 1540,1307.5C 1538.82,1298.79 1537.32,1290.12 1535.5,1281.5C 1535.27,1279.07 1536.27,1277.4 1538.5,1276.5 Z"
      />
    </g>
    <g transform="matrix(0.232075, 0, 0, 0.232075, -53.291798, -108.361595)">
      <path
        fill="#0b0b0b"
        d="M 621.5,1279.5 C 622.167,1279.83 622.833,1280.17 623.5,1280.5C 623.998,1288.58 620.331,1292.25 612.5,1291.5C 611.357,1288.5 611.357,1285.5 612.5,1282.5C 615.427,1281.2 618.427,1280.2 621.5,1279.5 Z"
      />
    </g>
    <g transform="matrix(0.232075, 0, 0, 0.232075, -53.291798, -108.361595)">
      <path
        fill="#474747"
        d="M 621.5,1279.5 C 618.427,1280.2 615.427,1281.2 612.5,1282.5C 611.357,1285.5 611.357,1288.5 612.5,1291.5C 611.883,1291.39 611.383,1291.06 611,1290.5C 609.397,1281.6 612.897,1277.93 621.5,1279.5 Z"
      />
    </g>
    <g transform="matrix(0.232075, 0, 0, 0.232075, -53.291798, -108.361595)">
      <path
        fill="#adadad"
        d="M 1056.5,1265.5 C 1057.17,1267.83 1057.83,1270.17 1058.5,1272.5C 1058.91,1278.16 1059.24,1283.83 1059.5,1289.5C 1057.86,1281.72 1056.86,1273.72 1056.5,1265.5 Z"
      />
    </g>
    <g transform="matrix(0.232075, 0, 0, 0.232075, -53.291798, -108.361595)">
      <path
        fill="#bcbcbc"
        d="M 623.5,1280.5 C 624.88,1280.96 625.547,1281.96 625.5,1283.5C 624.458,1292.14 620.124,1294.81 612.5,1291.5C 620.331,1292.25 623.998,1288.58 623.5,1280.5 Z"
      />
    </g>
    <g transform="matrix(0.232075, 0, 0, 0.232075, -53.291798, -108.361595)">
      <path
        fill="#3c3c3c"
        d="M 1046.5,1293.5 C 1047.58,1296.63 1048.25,1299.96 1048.5,1303.5C 1048.5,1304.83 1048.5,1306.17 1048.5,1307.5C 1047.03,1303.08 1046.36,1298.41 1046.5,1293.5 Z"
      />
    </g>
    <g transform="matrix(0.232075, 0, 0, 0.232075, -53.291798, -108.361595)">
      <path
        fill="#797979"
        d="M 1559.5,1287.5 C 1559.83,1287.5 1560.17,1287.5 1560.5,1287.5C 1560.67,1292.84 1560.5,1298.18 1560,1303.5C 1557.34,1306.17 1554.17,1307.83 1550.5,1308.5C 1553.27,1306.68 1555.94,1304.68 1558.5,1302.5C 1559.49,1297.54 1559.83,1292.54 1559.5,1287.5 Z"
      />
    </g>
    <g transform="matrix(0.232075, 0, 0, 0.232075, -53.291798, -108.361595)">
      <path
        fill="#161616"
        d="M 1233.5,1304.5 C 1236.59,1303.83 1238.26,1305 1238.5,1308C 1238.2,1309.89 1237.7,1311.72 1237,1313.5C 1233.21,1315.43 1231.38,1314.26 1231.5,1310C 1231.39,1307.82 1232.06,1305.99 1233.5,1304.5 Z"
      />
    </g>
    <g transform="matrix(0.232075, 0, 0, 0.232075, -53.291798, -108.361595)">
      <path
        fill="#b6b6b6"
        d="M 1535.5,1281.5 C 1537.32,1290.12 1538.82,1298.79 1540,1307.5C 1543.23,1309.84 1546.73,1310.17 1550.5,1308.5C 1548.97,1310.68 1546.8,1311.68 1544,1311.5C 1541.85,1311.6 1540.02,1310.94 1538.5,1309.5C 1536.42,1305.46 1536.09,1301.29 1537.5,1297C 1534.67,1291.99 1534,1286.83 1535.5,1281.5 Z"
      />
    </g>
    <g transform="matrix(0.232075, 0, 0, 0.232075, -53.291798, -108.361595)">
      <path
        fill="#101010"
        d="M 688.5,1313.5 C 687.806,1316.42 686.973,1319.42 686,1322.5C 684.301,1323.41 682.467,1323.74 680.5,1323.5C 678.207,1320.09 677.874,1316.43 679.5,1312.5C 681.818,1309.6 684.651,1308.94 688,1310.5C 688.483,1311.45 688.649,1312.45 688.5,1313.5 Z"
      />
    </g>
    <g transform="matrix(0.232075, 0, 0, 0.232075, -53.291798, -108.361595)">
      <path
        fill="#878787"
        d="M 679.5,1312.5 C 677.874,1316.43 678.207,1320.09 680.5,1323.5C 679.504,1323.59 678.671,1323.25 678,1322.5C 677.333,1319.5 677.333,1316.5 678,1313.5C 678.383,1312.94 678.883,1312.61 679.5,1312.5 Z"
      />
    </g>
    <g transform="matrix(0.232075, 0, 0, 0.232075, -53.291798, -108.361595)">
      <path
        fill="#afafaf"
        d="M 1048.5,1303.5 C 1050.22,1309.25 1051.22,1315.25 1051.5,1321.5C 1050.07,1317.01 1049.07,1312.35 1048.5,1307.5C 1048.5,1306.17 1048.5,1304.83 1048.5,1303.5 Z"
      />
    </g>
    <g transform="matrix(0.232075, 0, 0, 0.232075, -53.291798, -108.361595)">
      <path
        fill="#a4a4a4"
        d="M 688.5,1313.5 C 688.665,1316.85 688.498,1320.18 688,1323.5C 685.395,1324.81 682.895,1324.81 680.5,1323.5C 682.467,1323.74 684.301,1323.41 686,1322.5C 686.973,1319.42 687.806,1316.42 688.5,1313.5 Z"
      />
    </g>
    <g transform="matrix(0.232075, 0, 0, 0.232075, -53.291798, -108.361595)">
      <path
        fill="#7f7f7f"
        d="M 1582.5,1324.5 C 1577.2,1322.09 1574.87,1323.75 1575.5,1329.5C 1574.19,1327.44 1574.19,1325.27 1575.5,1323C 1576.67,1322.83 1577.83,1322.67 1579,1322.5C 1580.68,1322.61 1581.85,1323.27 1582.5,1324.5 Z"
      />
    </g>
    <g transform="matrix(0.232075, 0, 0, 0.232075, -53.291798, -108.361595)">
      <path
        fill="#0e0e0e"
        d="M 1582.5,1324.5 C 1583.77,1330.9 1581.44,1332.9 1575.5,1330.5C 1575.5,1330.17 1575.5,1329.83 1575.5,1329.5C 1574.87,1323.75 1577.2,1322.09 1582.5,1324.5 Z"
      />
    </g>
    <g transform="matrix(0.232075, 0, 0, 0.232075, -53.291798, -108.361595)">
      <path
        fill="#fefefe"
        d="M 996.5,1327.5 C 997.462,1333.15 998.128,1338.98 998.5,1345C 997.616,1351.15 997.449,1357.32 998,1363.5C 999.47,1365.15 1001.3,1366.15 1003.5,1366.5C 1013.83,1365.58 1024.17,1365.08 1034.5,1365C 1023.32,1373.76 1012.32,1382.76 1001.5,1392C 988.655,1403.68 976.322,1415.85 964.5,1428.5C 964.96,1430.79 966.293,1432.12 968.5,1432.5C 971.708,1431.21 975.041,1430.54 978.5,1430.5C 984.146,1431.22 989.813,1431.55 995.5,1431.5C 996.473,1444.82 996.639,1458.15 996,1471.5C 994.072,1490.66 992.239,1509.83 990.5,1529C 991.759,1541.14 992.259,1553.31 992,1565.5C 987.208,1575.38 982.708,1585.38 978.5,1595.5C 983.147,1604.47 986.981,1613.8 990,1623.5C 990.152,1646 989.986,1668.5 989.5,1691C 989.51,1714.08 990.177,1737.08 991.5,1760C 990.537,1769.31 988.871,1778.48 986.5,1787.5C 981.6,1778.7 976.433,1770.04 971,1761.5C 963.288,1752.79 955.955,1743.79 949,1734.5C 928.541,1715.7 907.208,1698.04 885,1681.5C 871.659,1649.33 867.659,1615.99 873,1581.5C 883.495,1497.55 915.495,1423.22 969,1358.5C 978.644,1348.51 987.811,1338.18 996.5,1327.5 Z"
      />
    </g>
    <g transform="matrix(0.232075, 0, 0, 0.232075, -53.291798, -108.361595)">
      <path
        fill="#8e8e8e"
        d="M 1582.5,1324.5 C 1585.24,1330.81 1583.24,1333.31 1576.5,1332C 1575.94,1331.62 1575.61,1331.12 1575.5,1330.5C 1581.44,1332.9 1583.77,1330.9 1582.5,1324.5 Z"
      />
    </g>
    <g transform="matrix(0.232075, 0, 0, 0.232075, -53.291798, -108.361595)">
      <path
        fill="#6f6f6f"
        d="M 1055.5,1356.5 C 1056.92,1358.51 1057.59,1360.85 1057.5,1363.5C 1056.08,1361.49 1055.41,1359.15 1055.5,1356.5 Z"
      />
    </g>
    <g transform="matrix(0.232075, 0, 0, 0.232075, -53.291798, -108.361595)">
      <path
        fill="#333333"
        d="M 1783.5,1368.5 C 1802.99,1368.22 1822.66,1368.22 1842.5,1368.5C 1823,1369.59 1803.33,1369.59 1783.5,1368.5 Z"
      />
    </g>
    <g transform="matrix(0.232075, 0, 0, 0.232075, -53.291798, -108.361595)">
      <path
        fill="#7e7e7e"
        d="M 1792.5,1374.5 C 1800.4,1374.77 1808.06,1375.77 1815.5,1377.5C 1807.55,1377.63 1799.89,1376.63 1792.5,1374.5 Z"
      />
    </g>
    <g transform="matrix(0.232075, 0, 0, 0.232075, -53.291798, -108.361595)">
      <path
        fill="#505050"
        d="M 1862.5,1374.5 C 1867.16,1375.06 1871.5,1376.39 1875.5,1378.5C 1870.84,1377.94 1866.5,1376.61 1862.5,1374.5 Z"
      />
    </g>
    <g transform="matrix(0.232075, 0, 0, 0.232075, -53.291798, -108.361595)">
      <path
        fill="#f7f7f7"
        d="M 629.5,1396.5 C 636.779,1411.72 644.612,1426.72 653,1441.5C 655.779,1444.95 659.112,1447.62 663,1449.5C 663.333,1451.83 663.667,1454.17 664,1456.5C 666.723,1459.56 669.056,1462.89 671,1466.5C 672.191,1471.26 673.691,1475.93 675.5,1480.5C 666.972,1482.15 660.138,1479.49 655,1472.5C 649.553,1457.61 643.553,1442.94 637,1428.5C 633.236,1418.11 630.736,1407.45 629.5,1396.5 Z"
      />
    </g>
    <g transform="matrix(0.232075, 0, 0, 0.232075, -53.291798, -108.361595)">
      <path
        fill="#fefefe"
        d="M 1678.5,1439.5 C 1709.24,1446.88 1740.24,1453.05 1771.5,1458C 1749.34,1480.06 1725.34,1499.72 1699.5,1517C 1660.75,1538.91 1619.08,1550.91 1574.5,1553C 1559.5,1553.67 1544.5,1553.67 1529.5,1553C 1525.79,1552.83 1522.12,1552.33 1518.5,1551.5C 1528.15,1526.33 1543.15,1504.83 1563.5,1487C 1573.34,1480.24 1583.01,1473.24 1592.5,1466C 1607.17,1460 1621.83,1454 1636.5,1448C 1644.17,1447.33 1651.83,1447.33 1659.5,1448C 1663.11,1449.32 1666.78,1449.99 1670.5,1450C 1673.53,1446.78 1676.19,1443.28 1678.5,1439.5 Z"
      />
    </g>
    <g transform="matrix(0.232075, 0, 0, 0.232075, -53.291798, -108.361595)">
      <path
        fill="#fefefe"
        d="M 909.5,1441.5 C 910.043,1441.56 910.376,1441.89 910.5,1442.5C 880.524,1503.06 866.691,1567.06 869,1634.5C 871.569,1649.1 874.902,1663.44 879,1677.5C 872.922,1672.88 866.755,1668.38 860.5,1664C 848.057,1652.29 835.057,1641.29 821.5,1631C 817.362,1622.95 813.029,1614.95 808.5,1607C 804.184,1606.53 800.184,1607.2 796.5,1609C 788.795,1600.96 781.461,1592.63 774.5,1584C 828.343,1544.66 873.343,1497.16 909.5,1441.5 Z"
      />
    </g>
    <g transform="matrix(0.232075, 0, 0, 0.232075, -53.291798, -108.361595)">
      <path
        fill="#fefefe"
        d="M 1774.5,1459.5 C 1780.5,1460.5 1786.5,1461.5 1792.5,1462.5C 1789.89,1472 1789.05,1481.67 1790,1491.5C 1791.67,1499.02 1795.51,1505.18 1801.5,1510C 1800.61,1512.07 1799.94,1514.24 1799.5,1516.5C 1799.94,1524.01 1801.27,1531.34 1803.5,1538.5C 1803,1538.83 1802.5,1539.17 1802,1539.5C 1757.63,1531 1713.13,1530.33 1668.5,1537.5C 1667.5,1537.33 1666.5,1537.17 1665.5,1537C 1693.78,1525.87 1719.12,1510.2 1741.5,1490C 1752.57,1479.82 1763.57,1469.65 1774.5,1459.5 Z"
      />
    </g>
    <g transform="matrix(0.232075, 0, 0, 0.232075, -53.291798, -108.361595)">
      <path
        fill="#0e0e0e"
        d="M 1167.5,1489.5 C 1159.41,1489.35 1156.74,1485.35 1159.5,1477.5C 1162.39,1474.09 1165.55,1473.75 1169,1476.5C 1170.02,1481.13 1169.52,1485.46 1167.5,1489.5 Z"
      />
    </g>
    <g transform="matrix(0.232075, 0, 0, 0.232075, -53.291798, -108.361595)">
      <path
        fill="#7d7d7d"
        d="M 1168.5,1489.5 C 1168.17,1489.5 1167.83,1489.5 1167.5,1489.5C 1169.52,1485.46 1170.02,1481.13 1169,1476.5C 1165.55,1473.75 1162.39,1474.09 1159.5,1477.5C 1159.5,1477.17 1159.5,1476.83 1159.5,1476.5C 1160.51,1474.12 1162.35,1473.12 1165,1473.5C 1167.03,1473.35 1168.7,1474.02 1170,1475.5C 1170.67,1479.83 1170.67,1484.17 1170,1488.5C 1169.62,1489.06 1169.12,1489.39 1168.5,1489.5 Z"
      />
    </g>
    <g transform="matrix(0.232075, 0, 0, 0.232075, -53.291798, -108.361595)">
      <path
        fill="#3e3e3e"
        d="M 1492.5,1501.5 C 1492.67,1497.15 1492.5,1492.82 1492,1488.5C 1489.96,1487.58 1487.79,1487.24 1485.5,1487.5C 1487.79,1484.94 1490.29,1484.94 1493,1487.5C 1493.5,1490.5 1494,1493.5 1494.5,1496.5C 1494.56,1498.56 1493.9,1500.22 1492.5,1501.5 Z"
      />
    </g>
    <g transform="matrix(0.232075, 0, 0, 0.232075, -53.291798, -108.361595)">
      <path
        fill="#c6c6c6"
        d="M 1159.5,1476.5 C 1159.5,1476.83 1159.5,1477.17 1159.5,1477.5C 1156.74,1485.35 1159.41,1489.35 1167.5,1489.5C 1167.83,1489.5 1168.17,1489.5 1168.5,1489.5C 1164.96,1492.04 1161.46,1491.71 1158,1488.5C 1157.33,1484.83 1157.33,1481.17 1158,1477.5C 1158.38,1476.94 1158.88,1476.61 1159.5,1476.5 Z"
      />
    </g>
    <g transform="matrix(0.232075, 0, 0, 0.232075, -53.291798, -108.361595)">
      <path
        fill="#0b0b0b"
        d="M 1485.5,1487.5 C 1487.79,1487.24 1489.96,1487.58 1492,1488.5C 1492.5,1492.82 1492.67,1497.15 1492.5,1501.5C 1490.65,1502.57 1488.65,1502.57 1486.5,1501.5C 1483.89,1497.99 1482.89,1493.99 1483.5,1489.5C 1483.83,1488.5 1484.5,1487.83 1485.5,1487.5 Z"
      />
    </g>
    <g transform="matrix(0.232075, 0, 0, 0.232075, -53.291798, -108.361595)">
      <path
        fill="#aeaeae"
        d="M 1483.5,1489.5 C 1482.89,1493.99 1483.89,1497.99 1486.5,1501.5C 1485.42,1501.46 1484.42,1501.13 1483.5,1500.5C 1482.19,1496.69 1482.19,1493.02 1483.5,1489.5 Z"
      />
    </g>
    <g transform="matrix(0.232075, 0, 0, 0.232075, -53.291798, -108.361595)">
      <path
        fill="#090909"
        d="M 1855.5,1525.5 C 1856.34,1529.1 1856.68,1532.77 1856.5,1536.5C 1852.8,1540.89 1848.47,1541.55 1843.5,1538.5C 1842,1533.51 1842.67,1528.84 1845.5,1524.5C 1849.07,1521.68 1852.4,1522.01 1855.5,1525.5 Z"
      />
    </g>
    <g transform="matrix(0.232075, 0, 0, 0.232075, -53.291798, -108.361595)">
      <path
        fill="#696969"
        d="M 1845.5,1524.5 C 1842.67,1528.84 1842,1533.51 1843.5,1538.5C 1842.88,1538.39 1842.38,1538.06 1842,1537.5C 1841.33,1534.5 1841.33,1531.5 1842,1528.5C 1842.66,1526.68 1843.83,1525.34 1845.5,1524.5 Z"
      />
    </g>
    <g transform="matrix(0.232075, 0, 0, 0.232075, -53.291798, -108.361595)">
      <path
        fill="#727272"
        d="M 1855.5,1525.5 C 1856.12,1525.61 1856.62,1525.94 1857,1526.5C 1857.81,1530.03 1857.64,1533.36 1856.5,1536.5C 1856.68,1532.77 1856.34,1529.1 1855.5,1525.5 Z"
      />
    </g>
    <g transform="matrix(0.232075, 0, 0, 0.232075, -53.291798, -108.361595)">
      <path
        fill="#171717"
        d="M 916.5,1544.5 C 916.726,1552.88 913.559,1554.54 907,1549.5C 906.505,1547.53 906.338,1545.53 906.5,1543.5C 908.933,1539.18 912.099,1538.51 916,1541.5C 916.483,1542.45 916.649,1543.45 916.5,1544.5 Z"
      />
    </g>
    <g transform="matrix(0.232075, 0, 0, 0.232075, -53.291798, -108.361595)">
      <path
        fill="#c4c4c4"
        d="M 906.5,1543.5 C 906.338,1545.53 906.505,1547.53 907,1549.5C 913.559,1554.54 916.726,1552.88 916.5,1544.5C 919,1551.84 916.333,1554.67 908.5,1553C 904.293,1550.23 903.627,1547.06 906.5,1543.5 Z"
      />
    </g>
    <g transform="matrix(0.232075, 0, 0, 0.232075, -53.291798, -108.361595)">
      <path
        fill="#fefefe"
        d="M 1598.5,1553.5 C 1600.53,1553.34 1602.53,1553.5 1604.5,1554C 1567.29,1568.19 1531.79,1585.69 1498,1606.5C 1503.45,1589.68 1509.61,1573.01 1516.5,1556.5C 1518,1556.17 1519.5,1555.83 1521,1555.5C 1547.06,1558.13 1572.89,1557.47 1598.5,1553.5 Z"
      />
    </g>
    <g transform="matrix(0.232075, 0, 0, 0.232075, -53.291798, -108.361595)">
      <path
        fill="#0c0c0c"
        d="M 936.5,1572.5 C 936.98,1575.69 936.314,1578.52 934.5,1581C 931.183,1581.5 927.85,1581.67 924.5,1581.5C 923.215,1578.56 921.381,1575.89 919,1573.5C 916.832,1567.02 918.999,1564.19 925.5,1565C 926.257,1566.51 927.257,1567.85 928.5,1569C 931.565,1569.37 934.232,1570.53 936.5,1572.5 Z"
      />
    </g>
    <g transform="matrix(0.232075, 0, 0, 0.232075, -53.291798, -108.361595)">
      <path
        fill="#636363"
        d="M 936.5,1572.5 C 938.027,1575.8 937.693,1578.96 935.5,1582C 931.642,1582.81 927.976,1582.64 924.5,1581.5C 927.85,1581.67 931.183,1581.5 934.5,1581C 936.314,1578.52 936.98,1575.69 936.5,1572.5 Z"
      />
    </g>
    <g transform="matrix(0.232075, 0, 0, 0.232075, -53.291798, -108.361595)">
      <path
        fill="#111111"
        d="M 1239.5,1605.5 C 1242.25,1607.05 1243.09,1609.39 1242,1612.5C 1239.06,1613.82 1236.23,1613.82 1233.5,1612.5C 1232.68,1607.66 1234.68,1605.33 1239.5,1605.5 Z"
      />
    </g>
    <g transform="matrix(0.232075, 0, 0, 0.232075, -53.291798, -108.361595)">
      <path
        fill="#848484"
        d="M 1239.5,1605.5 C 1234.68,1605.33 1232.68,1607.66 1233.5,1612.5C 1230.78,1609.82 1231.11,1607.32 1234.5,1605C 1236.39,1604.22 1238.05,1604.39 1239.5,1605.5 Z"
      />
    </g>
    <g transform="matrix(0.232075, 0, 0, 0.232075, -53.291798, -108.361595)">
      <path
        fill="#0a0a0a"
        d="M 1261.5,1620.5 C 1261.66,1622.86 1261.5,1625.19 1261,1627.5C 1258.52,1630.14 1256.68,1633.14 1255.5,1636.5C 1253.7,1637.05 1252.03,1637.88 1250.5,1639C 1245.32,1640.82 1242.48,1638.99 1242,1633.5C 1234.82,1632.63 1232.32,1628.79 1234.5,1622C 1238.87,1621.58 1243.21,1620.91 1247.5,1620C 1248.06,1619.62 1248.39,1619.12 1248.5,1618.5C 1249.2,1616.41 1250.2,1614.41 1251.5,1612.5C 1252.95,1611.39 1254.61,1611.22 1256.5,1612C 1258.45,1614.71 1260.12,1617.54 1261.5,1620.5 Z"
      />
    </g>
    <g transform="matrix(0.232075, 0, 0, 0.232075, -53.291798, -108.361595)">
      <path
        fill="#636363"
        d="M 1251.5,1612.5 C 1250.2,1614.41 1249.2,1616.41 1248.5,1618.5C 1248.34,1616.8 1248.51,1615.13 1249,1613.5C 1249.67,1612.75 1250.5,1612.41 1251.5,1612.5 Z"
      />
    </g>
    <g transform="matrix(0.232075, 0, 0, 0.232075, -53.291798, -108.361595)">
      <path
        fill="#b9b9b9"
        d="M 1261.5,1620.5 C 1262.64,1623.64 1262.81,1626.97 1262,1630.5C 1259.26,1632.08 1257.09,1634.08 1255.5,1636.5C 1256.68,1633.14 1258.52,1630.14 1261,1627.5C 1261.5,1625.19 1261.66,1622.86 1261.5,1620.5 Z"
      />
    </g>
    <g transform="matrix(0.232075, 0, 0, 0.232075, -53.291798, -108.361595)">
      <path
        fill="#fefefe"
        d="M 1542.5,1722.5 C 1554.88,1723.08 1567.21,1724.24 1579.5,1726C 1589.4,1730.3 1599.23,1734.8 1609,1739.5C 1608.56,1746.14 1608.56,1752.8 1609,1759.5C 1609.17,1764.91 1611.84,1767.91 1617,1768.5C 1621.45,1767.26 1625.95,1766.76 1630.5,1767C 1646.79,1781.98 1665.79,1791.98 1687.5,1797C 1694.18,1797.31 1700.85,1797.31 1707.5,1797C 1686.52,1808.5 1664.52,1817.16 1641.5,1823C 1637.33,1826.18 1637.83,1828.35 1643,1829.5C 1658.48,1825.77 1672.48,1828.77 1685,1838.5C 1692.1,1853 1695.77,1868.33 1696,1884.5C 1696.14,1900.19 1695.8,1915.86 1695,1931.5C 1699.69,1938.88 1703.86,1946.55 1707.5,1954.5C 1704.33,1962.84 1701.66,1971.34 1699.5,1980C 1700.28,1987.28 1701.61,1994.45 1703.5,2001.5C 1703.08,2002.67 1702.41,2003.67 1701.5,2004.5C 1669.25,2018.19 1635.92,2028.36 1601.5,2035C 1591.89,2036.66 1582.22,2037.33 1572.5,2037C 1535.29,2021.74 1501.29,2001.41 1470.5,1976C 1456.04,1964.54 1441.87,1952.71 1428,1940.5C 1427.33,1939.83 1427.33,1939.17 1428,1938.5C 1446.91,1916.96 1470.74,1905.46 1499.5,1904C 1502.17,1901.67 1502.17,1899.33 1499.5,1897C 1488.73,1892.56 1480.89,1885.06 1476,1874.5C 1472.11,1867.67 1469.95,1860.34 1469.5,1852.5C 1469.4,1846.52 1469.73,1840.52 1470.5,1834.5C 1469.28,1821.15 1467.78,1807.81 1466,1794.5C 1462.81,1791.31 1459.64,1788.14 1456.5,1785C 1457.45,1778.35 1458.95,1771.85 1461,1765.5C 1467.86,1757.97 1474.7,1750.47 1481.5,1743C 1499.49,1729.25 1519.82,1722.42 1542.5,1722.5 Z"
      />
    </g>
    <g transform="matrix(0.232075, 0, 0, 0.232075, -53.291798, -108.361595)">
      <path
        fill="#fdfdfd"
        d="M 1816.5,1775.5 C 1817.24,1775.37 1817.91,1775.54 1818.5,1776C 1817.14,1777.94 1816.3,1780.11 1816,1782.5C 1816.28,1797.16 1814.28,1811.5 1810,1825.5C 1809.67,1830.83 1809.33,1836.17 1809,1841.5C 1804.77,1832.67 1802.43,1823.34 1802,1813.5C 1800.12,1810.58 1798.95,1807.41 1798.5,1804C 1799.48,1797.9 1801.32,1792.06 1804,1786.5C 1808.36,1782.97 1812.53,1779.3 1816.5,1775.5 Z"
      />
    </g>
    <g transform="matrix(0.232075, 0, 0, 0.232075, -53.291798, -108.361595)">
      <path
        fill="#0c0c0c"
        d="M 1302.5,1832.5 C 1306.48,1838.27 1306.48,1844.1 1302.5,1850C 1300.53,1850.5 1298.53,1850.66 1296.5,1850.5C 1295.83,1850.17 1295.17,1849.83 1294.5,1849.5C 1293.64,1845.57 1293.31,1841.57 1293.5,1837.5C 1294.6,1836.15 1295.6,1834.65 1296.5,1833C 1298.47,1832.5 1300.47,1832.34 1302.5,1832.5 Z"
      />
    </g>
    <g transform="matrix(0.232075, 0, 0, 0.232075, -53.291798, -108.361595)">
      <path
        fill="#7a7a7a"
        d="M 1293.5,1837.5 C 1293.31,1841.57 1293.64,1845.57 1294.5,1849.5C 1293.88,1849.39 1293.38,1849.06 1293,1848.5C 1292.19,1844.64 1292.36,1840.98 1293.5,1837.5 Z"
      />
    </g>
    <g transform="matrix(0.232075, 0, 0, 0.232075, -53.291798, -108.361595)">
      <path
        fill="#ababab"
        d="M 1302.5,1832.5 C 1304.02,1832.51 1305.18,1833.18 1306,1834.5C 1306.95,1840.39 1306.45,1846.06 1304.5,1851.5C 1302.8,1851.62 1301.13,1851.95 1299.5,1852.5C 1297.96,1852.55 1296.96,1851.88 1296.5,1850.5C 1298.53,1850.66 1300.53,1850.5 1302.5,1850C 1306.48,1844.1 1306.48,1838.27 1302.5,1832.5 Z"
      />
    </g>
    <g transform="matrix(0.232075, 0, 0, 0.232075, -53.291798, -108.361595)">
      <path
        fill="#141414"
        d="M 1587.5,1854.5 C 1592.68,1862.68 1590.34,1867.02 1580.5,1867.5C 1579.14,1862.48 1580.14,1857.98 1583.5,1854C 1585.07,1853.24 1586.4,1853.4 1587.5,1854.5 Z"
      />
    </g>
    <g transform="matrix(0.232075, 0, 0, 0.232075, -53.291798, -108.361595)">
      <path
        fill="#818181"
        d="M 1290.5,1860.5 C 1293.09,1861.42 1295.09,1863.09 1296.5,1865.5C 1293.91,1864.58 1291.91,1862.91 1290.5,1860.5 Z"
      />
    </g>
    <g transform="matrix(0.232075, 0, 0, 0.232075, -53.291798, -108.361595)">
      <path
        fill="#090909"
        d="M 1290.5,1860.5 C 1291.91,1862.91 1293.91,1864.58 1296.5,1865.5C 1297.51,1866.67 1298.85,1867.34 1300.5,1867.5C 1303.26,1871.27 1304.26,1875.61 1303.5,1880.5C 1299.95,1886.6 1294.61,1888.94 1287.5,1887.5C 1280.75,1886.76 1275.08,1884.09 1270.5,1879.5C 1270.17,1878.17 1269.83,1876.83 1269.5,1875.5C 1268.8,1871.18 1269.97,1867.51 1273,1864.5C 1275.71,1863 1278.55,1862 1281.5,1861.5C 1284.43,1860.7 1287.43,1860.37 1290.5,1860.5 Z"
      />
    </g>
    <g transform="matrix(0.232075, 0, 0, 0.232075, -53.291798, -108.361595)">
      <path
        fill="#bababa"
        d="M 1587.5,1854.5 C 1590.15,1855.15 1591.82,1856.82 1592.5,1859.5C 1592.22,1865.44 1589.22,1868.78 1583.5,1869.5C 1581.96,1869.55 1580.96,1868.88 1580.5,1867.5C 1590.34,1867.02 1592.68,1862.68 1587.5,1854.5 Z"
      />
    </g>
    <g transform="matrix(0.232075, 0, 0, 0.232075, -53.291798, -108.361595)">
      <path
        fill="#8a8a8a"
        d="M 1281.5,1861.5 C 1278.55,1862 1275.71,1863 1273,1864.5C 1269.97,1867.51 1268.8,1871.18 1269.5,1875.5C 1267.42,1870.14 1268.75,1865.64 1273.5,1862C 1276.15,1861.5 1278.81,1861.34 1281.5,1861.5 Z"
      />
    </g>
    <g transform="matrix(0.232075, 0, 0, 0.232075, -53.291798, -108.361595)">
      <path
        fill="#b7b7b7"
        d="M 1300.5,1867.5 C 1304.56,1868.58 1306.23,1871.25 1305.5,1875.5C 1305.44,1877.64 1304.78,1879.31 1303.5,1880.5C 1304.26,1875.61 1303.26,1871.27 1300.5,1867.5 Z"
      />
    </g>
    <g transform="matrix(0.232075, 0, 0, 0.232075, -53.291798, -108.361595)">
      <path
        fill="#050505"
        d="M 816.5,1875.5 C 817.5,1877.17 818.833,1878.5 820.5,1879.5C 822.055,1882.94 823.888,1886.27 826,1889.5C 826.768,1893.92 826.602,1898.25 825.5,1902.5C 822.32,1905.97 818.486,1908.64 814,1910.5C 811.775,1920.87 806.275,1923.2 797.5,1917.5C 795.848,1912.66 795.182,1907.66 795.5,1902.5C 792.098,1902.66 788.764,1902.32 785.5,1901.5C 782.049,1898.59 780.882,1894.92 782,1890.5C 784.065,1886.68 786.565,1883.34 789.5,1880.5C 793.452,1879.8 797.452,1879.3 801.5,1879C 805.664,1874.52 810.664,1873.35 816.5,1875.5 Z"
      />
    </g>
    <g transform="matrix(0.232075, 0, 0, 0.232075, -53.291798, -108.361595)">
      <path
        fill="#2d2d2d"
        d="M 816.5,1875.5 C 810.664,1873.35 805.664,1874.52 801.5,1879C 797.452,1879.3 793.452,1879.8 789.5,1880.5C 789.611,1879.88 789.944,1879.38 790.5,1879C 793.833,1878.67 797.167,1878.33 800.5,1878C 801.743,1876.85 802.743,1875.51 803.5,1874C 807.5,1873.33 811.5,1873.33 815.5,1874C 816.056,1874.38 816.389,1874.88 816.5,1875.5 Z"
      />
    </g>
    <g transform="matrix(0.232075, 0, 0, 0.232075, -53.291798, -108.361595)">
      <path
        fill="#cacaca"
        d="M 1270.5,1879.5 C 1275.08,1884.09 1280.75,1886.76 1287.5,1887.5C 1287.5,1887.83 1287.5,1888.17 1287.5,1888.5C 1281.05,1889.01 1275.38,1887.34 1270.5,1883.5C 1270.5,1882.17 1270.5,1880.83 1270.5,1879.5 Z"
      />
    </g>
    <g transform="matrix(0.232075, 0, 0, 0.232075, -53.291798, -108.361595)">
      <path
        fill="#747474"
        d="M 1303.5,1880.5 C 1300.76,1887.87 1295.42,1890.54 1287.5,1888.5C 1287.5,1888.17 1287.5,1887.83 1287.5,1887.5C 1294.61,1888.94 1299.95,1886.6 1303.5,1880.5 Z"
      />
    </g>
    <g transform="matrix(0.232075, 0, 0, 0.232075, -53.291798, -108.361595)">
      <path
        fill="#b2b2b2"
        d="M 820.5,1879.5 C 818.833,1878.5 817.5,1877.17 816.5,1875.5C 816.389,1874.88 816.056,1874.38 815.5,1874C 811.5,1873.33 807.5,1873.33 803.5,1874C 802.743,1875.51 801.743,1876.85 800.5,1878C 797.167,1878.33 793.833,1878.67 790.5,1879C 789.944,1879.38 789.611,1879.88 789.5,1880.5C 786.565,1883.34 784.065,1886.68 782,1890.5C 780.882,1894.92 782.049,1898.59 785.5,1901.5C 782.981,1901.15 781.147,1899.82 780,1897.5C 779.333,1894.5 779.333,1891.5 780,1888.5C 782.825,1884.68 785.992,1881.18 789.5,1878C 793.084,1876.93 796.75,1876.26 800.5,1876C 804.651,1870.44 809.984,1869.11 816.5,1872C 817.986,1874.47 819.319,1876.97 820.5,1879.5 Z"
      />
    </g>
    <g transform="matrix(0.232075, 0, 0, 0.232075, -53.291798, -108.361595)">
      <path
        fill="#6e6e6e"
        d="M 785.5,1901.5 C 788.764,1902.32 792.098,1902.66 795.5,1902.5C 795.182,1907.66 795.848,1912.66 797.5,1917.5C 796.034,1916.65 795.2,1915.32 795,1913.5C 794.502,1910.18 794.335,1906.85 794.5,1903.5C 791.813,1903.66 789.146,1903.5 786.5,1903C 785.944,1902.62 785.611,1902.12 785.5,1901.5 Z"
      />
    </g>
    <g transform="matrix(0.232075, 0, 0, 0.232075, -53.291798, -108.361595)">
      <path
        fill="#d5d5d5"
        d="M 820.5,1879.5 C 824.451,1881.28 826.784,1884.45 827.5,1889C 829.02,1894.67 828.52,1900.17 826,1905.5C 823.654,1908.5 820.654,1910.5 817,1911.5C 816.272,1914.19 815.105,1916.52 813.5,1918.5C 812.967,1912.54 815.634,1909.04 821.5,1908C 823.464,1906.55 824.797,1904.72 825.5,1902.5C 826.602,1898.25 826.768,1893.92 826,1889.5C 823.888,1886.27 822.055,1882.94 820.5,1879.5 Z"
      />
    </g>
    <g transform="matrix(0.232075, 0, 0, 0.232075, -53.291798, -108.361595)">
      <path
        fill="#8d8d8d"
        d="M 825.5,1902.5 C 824.797,1904.72 823.464,1906.55 821.5,1908C 815.634,1909.04 812.967,1912.54 813.5,1918.5C 813.047,1919.46 812.381,1920.29 811.5,1921C 807.5,1921.67 803.5,1921.67 799.5,1921C 798.177,1920.18 797.511,1919.02 797.5,1917.5C 806.275,1923.2 811.775,1920.87 814,1910.5C 818.486,1908.64 822.32,1905.97 825.5,1902.5 Z"
      />
    </g>
    <g transform="matrix(0.232075, 0, 0, 0.232075, -53.291798, -108.361595)">
      <path
        fill="#6e6e6e"
        d="M 834.5,1921.5 C 832.473,1921.34 830.473,1921.5 828.5,1922C 826.963,1923.71 825.296,1925.21 823.5,1926.5C 825.444,1920.81 829.11,1919.14 834.5,1921.5 Z"
      />
    </g>
    <g transform="matrix(0.232075, 0, 0, 0.232075, -53.291798, -108.361595)">
      <path
        fill="#0c0c0c"
        d="M 834.5,1921.5 C 836.153,1921.66 837.486,1922.33 838.5,1923.5C 843.013,1930.54 842.346,1937.04 836.5,1943C 834.19,1943.5 831.857,1943.66 829.5,1943.5C 828.5,1941.83 827.167,1940.5 825.5,1939.5C 823.624,1936.08 822.624,1932.41 822.5,1928.5C 822.328,1927.51 822.662,1926.84 823.5,1926.5C 825.296,1925.21 826.963,1923.71 828.5,1922C 830.473,1921.5 832.473,1921.34 834.5,1921.5 Z"
      />
    </g>
    <g transform="matrix(0.232075, 0, 0, 0.232075, -53.291798, -108.361595)">
      <path
        fill="#a4a4a4"
        d="M 838.5,1923.5 C 839.583,1923.54 840.583,1923.87 841.5,1924.5C 842.761,1929.67 842.761,1934.84 841.5,1940C 838.36,1944.38 834.36,1945.55 829.5,1943.5C 831.857,1943.66 834.19,1943.5 836.5,1943C 842.346,1937.04 843.013,1930.54 838.5,1923.5 Z"
      />
    </g>
    <g transform="matrix(0.232075, 0, 0, 0.232075, -53.291798, -108.361595)">
      <path
        fill="#939393"
        d="M 822.5,1928.5 C 822.624,1932.41 823.624,1936.08 825.5,1939.5C 823.926,1939.06 822.759,1938.06 822,1936.5C 821.199,1933.63 821.366,1930.97 822.5,1928.5 Z"
      />
    </g>
    <g transform="matrix(0.232075, 0, 0, 0.232075, -53.291798, -108.361595)">
      <path
        fill="#fefefe"
        d="M 1036.5,1941.5 C 1056.47,1959.78 1080.13,1969.61 1107.5,1971C 1097.63,1977.96 1086.63,1981.96 1074.5,1983C 1055.99,1985.26 1038.33,1982.43 1021.5,1974.5C 1024.06,1967.05 1027.89,1960.38 1033,1954.5C 1034.02,1950.09 1035.19,1945.76 1036.5,1941.5 Z"
      />
    </g>
    <g transform="matrix(0.232075, 0, 0, 0.232075, -53.291798, -108.361595)">
      <path
        fill="#fefefe"
        d="M 1423.5,1942.5 C 1424.92,1942.71 1426.26,1943.21 1427.5,1944C 1459.51,1972.83 1493.84,1998.5 1530.5,2021C 1542.04,2026.94 1553.71,2032.61 1565.5,2038C 1508.81,2039 1459.65,2020.5 1418,1982.5C 1412.25,1975.92 1407.09,1968.92 1402.5,1961.5C 1408.92,1954.41 1415.92,1948.07 1423.5,1942.5 Z"
      />
    </g>
    <g transform="matrix(0.232075, 0, 0, 0.232075, -53.291798, -108.361595)">
      <path
        fill="#fcfcfc"
        d="M 1399.5,1963.5 C 1409.55,1979.05 1422.22,1992.22 1437.5,2003C 1455.66,2015.58 1475.33,2025.25 1496.5,2032C 1463.29,2026.06 1433.96,2012.06 1408.5,1990C 1402.36,1984.87 1396.53,1979.37 1391,1973.5C 1390.33,1972.83 1390.33,1972.17 1391,1971.5C 1394.33,1969.33 1397.17,1966.67 1399.5,1963.5 Z"
      />
    </g>
    <g transform="matrix(0.232075, 0, 0, 0.232075, -53.291798, -108.361595)">
      <path
        fill="#fefefe"
        d="M 1109.5,1973.5 C 1110.98,1981.31 1112.15,1989.31 1113,1997.5C 1113.63,2001.85 1114.79,2006.01 1116.5,2010C 1086.39,2016.3 1059.05,2010.3 1034.5,1992C 1030.46,1988.3 1026.8,1984.3 1023.5,1980C 1031.32,1982.29 1039.32,1984.29 1047.5,1986C 1062.02,1987.98 1076.35,1986.98 1090.5,1983C 1097.45,1980.86 1103.79,1977.69 1109.5,1973.5 Z"
      />
    </g>
    <g transform="matrix(0.232075, 0, 0, 0.232075, -53.291798, -108.361595)">
      <path
        fill="#fefefe"
        d="M 1701.5,2007.5 C 1702.66,2019.99 1702.83,2032.66 1702,2045.5C 1676.03,2054.49 1649.53,2056.32 1622.5,2051C 1609.58,2048.6 1596.92,2045.27 1584.5,2041C 1625.15,2035.26 1664.15,2024.09 1701.5,2007.5 Z"
      />
    </g>
    <g transform="matrix(0.232075, 0, 0, 0.232075, -53.291798, -108.361595)">
      <path
        fill="#f4f4f4"
        d="M 855.5,2051.5 C 856.713,2052.5 856.546,2053.5 855,2054.5C 854.53,2053.42 854.697,2052.42 855.5,2051.5 Z"
      />
    </g>
    <g transform="matrix(0.232075, 0, 0, 0.232075, -53.291798, -108.361595)">
      <path
        fill="#6d6d6d"
        d="M 1785.5,2086.5 C 1785.68,2097.04 1785.01,2107.37 1783.5,2117.5C 1783.39,2106.97 1784.06,2096.63 1785.5,2086.5 Z"
      />
    </g>
    <g transform="matrix(0.232075, 0, 0, 0.232075, -53.291798, -108.361595)">
      <path
        fill="#c6c6c6"
        d="M 966.5,2134.5 C 961.616,2131.44 957.283,2132.1 953.5,2136.5C 955.933,2130.45 960.266,2128.45 966.5,2130.5C 966.5,2131.83 966.5,2133.17 966.5,2134.5 Z"
      />
    </g>
    <g transform="matrix(0.232075, 0, 0, 0.232075, -53.291798, -108.361595)">
      <path
        fill="#0d0d0d"
        d="M 966.5,2134.5 C 967.038,2136.12 967.371,2137.78 967.5,2139.5C 967.658,2142.9 967.324,2146.24 966.5,2149.5C 964.682,2157.14 960.682,2158.48 954.5,2153.5C 952.817,2149.36 952.15,2145.03 952.5,2140.5C 952.833,2139.17 953.167,2137.83 953.5,2136.5C 957.283,2132.1 961.616,2131.44 966.5,2134.5 Z"
      />
    </g>
    <g transform="matrix(0.232075, 0, 0, 0.232075, -53.291798, -108.361595)">
      <path
        fill="#a4a4a4"
        d="M 952.5,2140.5 C 952.15,2145.03 952.817,2149.36 954.5,2153.5C 953.069,2153.12 952.236,2152.12 952,2150.5C 951.192,2146.97 951.359,2143.64 952.5,2140.5 Z"
      />
    </g>
    <g transform="matrix(0.232075, 0, 0, 0.232075, -53.291798, -108.361595)">
      <path
        fill="#656565"
        d="M 967.5,2139.5 C 968.638,2142.3 968.805,2145.3 968,2148.5C 967.617,2149.06 967.117,2149.39 966.5,2149.5C 967.324,2146.24 967.658,2142.9 967.5,2139.5 Z"
      />
    </g>
    <g transform="matrix(0.232075, 0, 0, 0.232075, -53.291798, -108.361595)">
      <path
        fill="#3e3e3e"
        d="M 1783.5,2123.5 C 1783.5,2129.5 1783.5,2135.5 1783.5,2141.5C 1782.83,2178.83 1782.17,2216.17 1781.5,2253.5C 1781.33,2214.5 1781.5,2175.5 1782,2136.5C 1782.18,2131.98 1782.68,2127.65 1783.5,2123.5 Z"
      />
    </g>
    <g transform="matrix(0.232075, 0, 0, 0.232075, -53.291798, -108.361595)">
      <path
        fill="#161616"
        d="M 945.5,2172.5 C 945.287,2169.55 945.954,2166.88 947.5,2164.5C 953.493,2161.99 955.659,2163.99 954,2170.5C 953.224,2174.95 950.724,2176.45 946.5,2175C 945.748,2174.33 945.414,2173.5 945.5,2172.5 Z"
      />
    </g>
    <g transform="matrix(0.232075, 0, 0, 0.232075, -53.291798, -108.361595)">
      <path
        fill="#6b6b6b"
        d="M 947.5,2164.5 C 945.954,2166.88 945.287,2169.55 945.5,2172.5C 943.816,2169.28 944.483,2166.62 947.5,2164.5 Z"
      />
    </g>
    <g transform="matrix(0.232075, 0, 0, 0.232075, -53.291798, -108.361595)">
      <path
        fill="#d1d1d1"
        d="M 1783.5,2141.5 C 1783.67,2179.17 1783.5,2216.83 1783,2254.5C 1782.83,2259.68 1782.33,2264.68 1781.5,2269.5C 1781.5,2264.17 1781.5,2258.83 1781.5,2253.5C 1782.17,2216.17 1782.83,2178.83 1783.5,2141.5 Z"
      />
    </g>
    <g transform="matrix(0.232075, 0, 0, 0.232075, -53.291798, -108.361595)">
      <path
        fill="#4e4e4e"
        d="M 1795.5,2197.5 C 1797.14,2202.23 1797.81,2207.23 1797.5,2212.5C 1796.11,2207.73 1795.44,2202.73 1795.5,2197.5 Z"
      />
    </g>
    <g transform="matrix(0.232075, 0, 0, 0.232075, -53.291798, -108.361595)">
      <path
        fill="#101010"
        d="M 1678.5,2215.5 C 1689.82,2215.08 1692.48,2219.58 1686.5,2229C 1676.69,2228.99 1674.03,2224.49 1678.5,2215.5 Z"
      />
    </g>
    <g transform="matrix(0.232075, 0, 0, 0.232075, -53.291798, -108.361595)">
      <path
        fill="#b2b2b2"
        d="M 1799.5,2267.5 C 1800.56,2275.32 1801.22,2283.32 1801.5,2291.5C 1799.84,2283.73 1799.18,2275.73 1799.5,2267.5 Z"
      />
    </g>
    <g transform="matrix(0.232075, 0, 0, 0.232075, -53.291798, -108.361595)">
      <path
        fill="#b8b8b8"
        d="M 1779.5,2300.5 C 1779.22,2309.06 1778.22,2317.39 1776.5,2325.5C 1776.78,2316.94 1777.78,2308.61 1779.5,2300.5 Z"
      />
    </g>
    <g transform="matrix(0.232075, 0, 0, 0.232075, -53.291798, -108.361595)">
      <path
        fill="#f1f1f1"
        d="M 1426.5,2311.5 C 1431.54,2321.62 1435.37,2332.29 1438,2343.5C 1444.67,2347.16 1448,2352.83 1448,2360.5C 1448.67,2367.83 1448.67,2375.17 1448,2382.5C 1446.22,2393.21 1444.22,2403.87 1442,2414.5C 1440.69,2379.52 1435.53,2345.19 1426.5,2311.5 Z"
      />
    </g>
    <g transform="matrix(0.232075, 0, 0, 0.232075, -53.291798, -108.361595)">
      <path
        fill="#f7f7f7"
        d="M 729.5,2361.5 C 730.773,2362.08 730.773,2362.74 729.5,2363.5C 728.537,2363.03 728.537,2362.36 729.5,2361.5 Z"
      />
    </g>
    <g transform="matrix(0.232075, 0, 0, 0.232075, -53.291798, -108.361595)">
      <path
        fill="#111111"
        d="M 1391.5,2391.5 C 1391.54,2395.17 1392.54,2398.51 1394.5,2401.5C 1391.13,2410.46 1385.8,2411.8 1378.5,2405.5C 1374.73,2397.28 1377.06,2391.62 1385.5,2388.5C 1388.1,2388.47 1390.1,2389.47 1391.5,2391.5 Z"
      />
    </g>
    <g transform="matrix(0.232075, 0, 0, 0.232075, -53.291798, -108.361595)">
      <path
        fill="#cecece"
        d="M 1391.5,2391.5 C 1393.43,2393.74 1395.1,2396.24 1396.5,2399C 1395.92,2410.29 1390.25,2414.13 1379.5,2410.5C 1379.37,2408.78 1379.04,2407.12 1378.5,2405.5C 1385.8,2411.8 1391.13,2410.46 1394.5,2401.5C 1392.54,2398.51 1391.54,2395.17 1391.5,2391.5 Z"
      />
    </g>
    <g transform="matrix(0.232075, 0, 0, 0.232075, -53.291798, -108.361595)">
      <path
        fill="#959595"
        d="M 1365.5,2416.5 C 1367.53,2416.34 1369.53,2416.5 1371.5,2417C 1372.25,2417.67 1372.59,2418.5 1372.5,2419.5C 1370.27,2418.13 1367.93,2417.13 1365.5,2416.5 Z"
      />
    </g>
    <g transform="matrix(0.232075, 0, 0, 0.232075, -53.291798, -108.361595)">
      <path
        fill="#a0a0a0"
        d="M 1427.5,2402.5 C 1427.3,2410.69 1426.63,2418.69 1425.5,2426.5C 1425.25,2418.28 1425.91,2410.28 1427.5,2402.5 Z"
      />
    </g>
    <g transform="matrix(0.232075, 0, 0, 0.232075, -53.291798, -108.361595)">
      <path
        fill="#0d0d0d"
        d="M 1365.5,2416.5 C 1367.93,2417.13 1370.27,2418.13 1372.5,2419.5C 1373.34,2419.84 1373.67,2420.51 1373.5,2421.5C 1373.5,2424.5 1373.5,2427.5 1373.5,2430.5C 1370.76,2430.4 1368.1,2430.73 1365.5,2431.5C 1362.43,2431.63 1359.43,2431.3 1356.5,2430.5C 1353.96,2427.99 1353.13,2424.99 1354,2421.5C 1355.71,2419.24 1357.55,2417.07 1359.5,2415C 1361.87,2414.26 1363.87,2414.76 1365.5,2416.5 Z"
      />
    </g>
    <g transform="matrix(0.232075, 0, 0, 0.232075, -53.291798, -108.361595)">
      <path
        fill="#bdbdbd"
        d="M 1373.5,2421.5 C 1374.93,2421.88 1375.76,2422.88 1376,2424.5C 1377.68,2422.45 1379.51,2422.11 1381.5,2423.5C 1377.02,2423.8 1375.69,2425.97 1377.5,2430C 1379.13,2430.49 1380.8,2430.66 1382.5,2430.5C 1379.33,2431.45 1376.33,2431.45 1373.5,2430.5C 1373.5,2427.5 1373.5,2424.5 1373.5,2421.5 Z"
      />
    </g>
    <g transform="matrix(0.232075, 0, 0, 0.232075, -53.291798, -108.361595)">
      <path
        fill="#292929"
        d="M 1381.5,2423.5 C 1383.75,2425.45 1384.09,2427.78 1382.5,2430.5C 1380.8,2430.66 1379.13,2430.49 1377.5,2430C 1375.69,2425.97 1377.02,2423.8 1381.5,2423.5 Z"
      />
    </g>
    <g transform="matrix(0.232075, 0, 0, 0.232075, -53.291798, -108.361595)">
      <path
        fill="#b6b6b6"
        d="M 1774.5,2425.5 C 1773.5,2425.5 1772.5,2425.5 1771.5,2425.5C 1770.7,2430.36 1769.04,2430.36 1766.5,2425.5C 1769.06,2425.05 1771.72,2425.05 1774.5,2425.5 Z"
      />
    </g>
    <g transform="matrix(0.232075, 0, 0, 0.232075, -53.291798, -108.361595)">
      <path
        fill="#0e0e0e"
        d="M 1766.5,2425.5 C 1769.04,2430.36 1770.7,2430.36 1771.5,2425.5C 1772.5,2425.5 1773.5,2425.5 1774.5,2425.5C 1775.32,2427.14 1776.15,2428.81 1777,2430.5C 1779.46,2431.03 1781.3,2432.37 1782.5,2434.5C 1782.74,2436.47 1782.41,2438.3 1781.5,2440C 1776.86,2439.88 1772.2,2439.71 1767.5,2439.5C 1767.53,2442.08 1766.87,2444.41 1765.5,2446.5C 1761.04,2451.76 1756.71,2451.76 1752.5,2446.5C 1752.34,2443.1 1752.68,2439.76 1753.5,2436.5C 1755.02,2433.49 1756.69,2430.49 1758.5,2427.5C 1758.61,2426.88 1758.94,2426.38 1759.5,2426C 1761.81,2425.5 1764.14,2425.34 1766.5,2425.5 Z"
      />
    </g>
    <g transform="matrix(0.232075, 0, 0, 0.232075, -53.291798, -108.361595)">
      <path
        fill="#6a6a6a"
        d="M 1356.5,2430.5 C 1359.43,2431.3 1362.43,2431.63 1365.5,2431.5C 1363.03,2432.63 1360.37,2432.8 1357.5,2432C 1356.94,2431.62 1356.61,2431.12 1356.5,2430.5 Z"
      />
    </g>
    <g transform="matrix(0.232075, 0, 0, 0.232075, -53.291798, -108.361595)">
      <path
        fill="#9e9e9e"
        d="M 1758.5,2427.5 C 1756.69,2430.49 1755.02,2433.49 1753.5,2436.5C 1753.56,2432.52 1755.23,2429.52 1758.5,2427.5 Z"
      />
    </g>
    <g transform="matrix(0.232075, 0, 0, 0.232075, -53.291798, -108.361595)">
      <path
        fill="#c0c0c0"
        d="M 1782.5,2434.5 C 1783.81,2436.56 1783.81,2438.73 1782.5,2441C 1778.18,2441.5 1773.85,2441.67 1769.5,2441.5C 1769.63,2444.37 1768.3,2446.03 1765.5,2446.5C 1766.87,2444.41 1767.53,2442.08 1767.5,2439.5C 1772.2,2439.71 1776.86,2439.88 1781.5,2440C 1782.41,2438.3 1782.74,2436.47 1782.5,2434.5 Z"
      />
    </g>
    <g transform="matrix(0.232075, 0, 0, 0.232075, -53.291798, -108.361595)">
      <path
        fill="#686868"
        d="M 1753.5,2436.5 C 1752.68,2439.76 1752.34,2443.1 1752.5,2446.5C 1751.36,2443.7 1751.2,2440.7 1752,2437.5C 1752.38,2436.94 1752.88,2436.61 1753.5,2436.5 Z"
      />
    </g>
    <g transform="matrix(0.232075, 0, 0, 0.232075, -53.291798, -108.361595)">
      <path
        fill="#fff"
        d="M 1611.5,2548.5 C 1612.77,2549.08 1612.77,2549.74 1611.5,2550.5C 1610.55,2551.33 1609.55,2551.49 1608.5,2551C 1609.57,2550.15 1610.57,2549.31 1611.5,2548.5 Z"
      />
    </g>
  </g>
</svg>
