<svg width="351" height="266" viewBox="0 0 351 266" fill="none" xmlns="http://www.w3.org/2000/svg">
	<path
		fill="white"
		fill-rule="evenodd"
		clip-rule="evenodd"
		d="M302.82 3.25C301.48 5.037 298.903 9.2 297.094 12.5C295.284 15.8 293.672 18.673 293.512 18.884C293.351 19.095 290.618 18.304 287.438 17.126C270.833 10.973 258.508 9.824 243.155 12.995C237.38 14.188 232.205 15.177 231.655 15.194C231.105 15.211 225.655 13.63 219.544 11.682C213.434 9.73301 205.559 7.59999 202.044 6.94299C194.493 5.52899 165.206 5.54899 163.786 6.96899C163.246 7.50899 162.355 12.62 161.806 18.328L160.808 28.705L147.231 29.332C139.764 29.677 131.001 30.655 127.757 31.505C99.7213 38.856 68.6373 61.415 53.7503 85.215L50.8453 89.86L45.6393 84.527C39.1433 77.874 35.1403 75.769 28.9823 75.769C23.2063 75.769 19.6843 77.822 17.4603 82.487C16.1623 85.208 15.0903 86.004 12.0293 86.521C4.56834 87.782 0.0673428 93.624 0.00134278 102.132C-0.0206572 104.887 0.230342 107.409 0.558342 107.737C0.887342 108.065 1.15534 106.564 1.15534 104.401C1.15534 99.376 3.95434 94.117 8.15434 91.25C13.7803 87.41 14.9553 88.068 14.9553 95.061C14.9553 99.436 15.4433 101.661 16.7103 103.061C21.0153 107.818 28.1553 103.238 28.1553 95.72C28.1553 91.039 25.8393 87.892 21.4053 86.548C18.4053 85.638 18.5663 84.674 22.2323 81.589C26.5313 77.971 32.2933 78.068 38.2693 81.857C44.3593 85.719 49.4173 91.9 48.6163 94.5C45.1233 105.836 43.0173 118.953 42.5153 132.5C42.0433 145.25 42.4203 151.475 45.0253 174C48.2513 201.885 49.3203 207.278 54.3263 220.928C58.0753 231.151 65.9463 245 68.0073 245C68.4013 245 69.5643 243.578 70.5903 241.84L72.4573 238.68L74.7313 243.156C78.0013 249.589 79.7683 250.845 82.1333 248.418C87.1323 243.289 100.155 214.748 100.155 208.92C100.155 206.487 101.113 206.513 108.302 209.134L114.155 211.268V216.469C114.155 220.192 115.243 224.344 117.985 231.085C120.091 236.263 122.125 241.738 122.504 243.25C123.463 247.076 124.429 246.709 127.343 241.411L129.866 236.821L131.503 240.911C132.402 243.16 133.59 245 134.141 245C136.782 245 147.345 226.051 148.914 218.498C149.657 214.923 150.057 214.5 152.7 214.5H155.655L156.348 223C157.027 231.33 160.014 245.54 162.763 253.526C164.384 258.234 170.353 264.761 173.837 265.635C176.624 266.335 180.741 263.123 182.327 259.012L183.287 256.523L185.233 259.012C187.164 261.48 187.193 261.484 188.785 259.5C193.24 253.949 200.201 234.275 202.734 220.076C203.477 215.909 204.101 208.877 204.12 204.45C204.154 196.632 205.059 194 207.711 194C208.512 194 209.036 198.69 209.414 209.25C210.185 230.752 215.646 253 220.153 253C222.064 253 226.099 248.925 229.01 244.056C231.289 240.244 231.897 240.868 232.37 247.5C233.047 256.999 240.298 250.629 248.147 233.638C252.883 223.388 256.014 211.645 256.829 201.075L257.431 193.262L264.307 192.622C271.548 191.95 287.891 187.165 294.655 183.738C301.152 180.446 315.379 170.435 319.155 166.498C321.08 164.491 325.67 160.839 329.354 158.382C341.774 150.099 348.97 138.452 349.882 125.158C350.487 116.326 349.158 108.731 345.741 101.5C344.442 98.749 343.101 93.556 342.76 89.955C341.842 80.247 338.589 69.617 333.441 59.5C330.189 53.111 328.334 47.79 327.045 41.158C324.919 30.215 322.497 23.385 316.991 12.802C312.882 4.903 308.89 0 306.57 0C305.848 0 304.16 1.463 302.82 3.25ZM311.42 9.839C316.343 17.939 323.094 35.713 323.143 40.707C323.15 41.371 321.086 39.702 318.557 36.998C316.027 34.294 311.778 30.683 309.114 28.974C306.45 27.264 304.431 25.333 304.629 24.683C304.827 24.032 305.261 21.554 305.595 19.176C306.363 13.711 304.59 14.468 303.654 20.005C303.283 22.202 302.751 24 302.471 24C302.192 24 300.676 23.239 299.102 22.31L296.241 20.62L300.948 11.821C303.537 6.981 306.105 3.162 306.655 3.334C307.205 3.506 309.349 6.433 311.42 9.839ZM203.155 11.017C205.63 11.578 211.576 13.219 216.369 14.665L225.084 17.293L220.408 20.259C216.72 22.598 215.408 22.985 214.194 22.092C209.914 18.944 205.158 17.711 196.155 17.415C186.692 17.105 186.681 17.107 193.335 18.039C200.157 18.995 210.681 22.424 211.661 24.01C211.961 24.495 209.607 26.675 206.43 28.855C194.111 37.312 179.521 56.13 173.09 71.86C171.269 76.313 169.625 79.803 169.436 79.614C169.248 79.426 168.429 73.698 167.618 66.886C165.594 49.9 164.727 29.236 165.599 18.799L166.326 10.099L171.491 9.66499C179.044 9.02999 197.949 9.838 203.155 11.017ZM278.535 17.923C304.858 25.613 325.36 44.338 333.918 68.505C336.974 77.134 340.155 89.447 340.155 92.647C340.155 93.745 338.829 93.216 335.405 90.751C325.965 83.957 311.435 80.222 298.953 81.382C290.706 82.149 279.42 86.329 274.913 90.287C273.121 91.861 270.641 93.843 269.402 94.691C266.102 96.951 258.308 107.661 255.351 114C253.105 118.816 252.777 120.868 252.72 130.5C252.661 140.549 252.885 141.936 255.316 146.54C260.456 156.278 271.077 163.522 283.898 166.034C287.616 166.763 294.583 167.074 301.124 166.805C313.589 166.291 313.779 166.62 304.463 172.58C285.058 184.993 265.513 189.893 243.155 187.95C231.008 186.894 225.607 185.657 216.232 181.783C197.119 173.883 187.385 164.933 178.222 146.832C171.295 133.15 169.787 125.485 170.414 107.157C170.864 93.991 171.245 91.533 174.157 83C183.213 56.458 197.945 37.832 218.996 26.306C229.008 20.824 234.586 18.631 243.756 16.573C252.808 14.541 269.126 15.175 278.535 17.923ZM161.155 43.466C161.155 55.321 163.463 74.121 165.804 81.336C167.169 85.545 167.204 87.231 166.071 94.336C164.108 106.656 164.489 121.888 167.022 132.352C171.096 149.175 182.419 166.861 194.921 175.93C198.674 178.652 201.275 181.342 201.668 182.908C202.378 185.736 201.617 199.89 200.043 213.126C199.133 220.785 195.074 238.414 193.967 239.521C193.736 239.752 190.647 240.685 187.101 241.594C179.648 243.506 165.766 243.058 163.59 240.836C162.103 239.318 158.155 207.242 158.155 196.682C158.155 193.007 157.753 190 157.262 190C155.736 190 155.155 192.887 155.155 200.465C155.155 209.15 155.454 208.966 141.312 208.986C131.27 209.001 115.334 206.226 107.393 203.08L102.655 201.203L103.005 195.352C103.42 188.405 102.88 188.564 100.802 196C99.9563 199.025 97.5093 206.45 95.3643 212.5C90.9723 224.884 89.4473 226.435 82.6553 225.426C71.6353 223.789 62.1173 219.261 57.8023 213.604C52.7273 206.95 49.0053 184.546 47.0023 148.581C45.5653 122.79 46.3443 115.528 52.1233 100.873C59.6173 81.87 74.0753 65.407 94.7463 52.339C116.406 38.646 132.174 33.39 152.405 33.118L161.155 33V43.466ZM315.628 54.67C314.285 56.013 314.028 57.857 314.311 64.102C314.712 72.923 317.076 77.5 321.233 77.5C324.579 77.5 326.123 73.779 326.14 65.673C326.154 59.451 325.896 58.587 323.232 55.923C319.901 52.592 318.017 52.281 315.628 54.67ZM244.794 58.349C243.654 60.75 243.155 64.533 243.155 70.766C243.155 78.378 243.474 80.136 245.27 82.419C246.988 84.603 248.066 85.05 251.02 84.804C256.494 84.346 258.394 80.042 257.894 69.227C257.429 59.184 255.438 55.67 249.944 55.198C246.802 54.928 246.26 55.259 244.794 58.349ZM317.681 87.089C325.7 88.572 332.021 91.974 338.395 98.238C343.371 103.128 343.881 104.079 345.6 111.679C348.961 126.542 345.992 136.863 335.222 147.755C325.579 157.507 317.356 160.876 301.155 161.711C284.844 162.552 273.359 159.204 265.458 151.303C259.203 145.048 257.651 140.899 257.678 130.5C257.698 122.533 258.058 120.739 260.821 114.865C264.617 106.796 275.843 94.576 283.078 90.638C285.84 89.135 290.025 87.526 292.378 87.062C298.644 85.827 310.925 85.841 317.681 87.089ZM23.4933 92.248C26.2523 95.947 24.9123 100.35 20.8873 100.816C18.1733 101.131 18.1553 101.092 18.1553 94.993C18.1553 89.832 18.4173 88.905 19.7993 89.177C20.7033 89.355 22.3653 90.737 23.4933 92.248ZM280.357 101.757C273.209 108.988 270.655 116.555 270.655 130.5C270.655 140.745 270.869 141.952 273.778 148.092C275.599 151.933 278.166 155.584 279.933 156.842C285.094 160.517 285.287 159.228 280.321 154.25C276.496 150.416 275.3 148.343 274.119 143.5C271.389 132.311 272.746 116.092 277.005 109C277.831 107.625 280.548 104.363 283.043 101.75C285.538 99.137 287.013 97 286.32 97C285.627 97 282.944 99.141 280.357 101.757ZM296.905 116.08C291.721 119.1 290.412 130.775 294.688 135.857C297.544 139.251 303.082 141.475 306.208 140.483C307.355 140.119 309.16 138.399 310.22 136.661C313.625 131.077 312.318 118.228 308.116 115.979C305.749 114.712 299.151 114.772 296.905 116.08ZM331.544 117.75C330.274 119.646 329.586 122.88 329.327 128.16C328.97 135.45 329.074 135.901 331.489 137.483C332.884 138.397 335.289 139 336.833 138.823C340.546 138.396 342.169 134.849 342.866 125.645C343.502 117.226 342.213 115 336.699 115C334.197 115 332.934 115.674 331.544 117.75ZM207.378 183.615L210.501 185.23L208.078 187.093C204.988 189.468 204.155 189.466 204.155 187.082C204.155 186.027 203.882 184.452 203.548 183.582C202.783 181.589 203.472 181.595 207.378 183.615ZM221.655 189.556C227.704 191.412 244.059 193.986 249.858 193.994L254.061 194L253.532 199.25C252.768 206.827 251.202 214.591 248.984 221.795C246.601 229.539 245.286 230.203 232.155 230.293C221.588 230.365 215.565 228.867 214.634 225.935C214.295 224.867 213.668 216.682 213.239 207.747C212.484 191.985 212.523 191.448 214.558 189.772C215.711 188.822 216.655 188.039 216.655 188.033C216.655 188.027 218.905 188.712 221.655 189.556ZM124.155 213.5C127.73 214.286 134.191 214.946 138.512 214.965C144.815 214.993 146.263 215.276 145.833 216.396C145.539 217.164 144.747 219.63 144.074 221.877C143.401 224.124 142.131 226.19 141.252 226.469C139.247 227.106 130.276 225.672 122.972 223.549C117.72 222.022 117.371 221.721 116.791 218.215C115.979 213.301 116.003 211.993 116.905 212.035C117.317 212.054 120.58 212.714 124.155 213.5Z"
	/>
</svg>
